<?xml version="1.0" encoding="UTF-8" standalone="no"?>
<!-- Created with Inkscape (http://www.inkscape.org/) -->

<svg
   xmlns:dc="http://purl.org/dc/elements/1.1/"
   xmlns:cc="http://creativecommons.org/ns#"
   xmlns:rdf="http://www.w3.org/1999/02/22-rdf-syntax-ns#"
   xmlns:svg="http://www.w3.org/2000/svg"
   xmlns="http://www.w3.org/2000/svg"
   xmlns:sodipodi="http://sodipodi.sourceforge.net/DTD/sodipodi-0.dtd"
   xmlns:inkscape="http://www.inkscape.org/namespaces/inkscape"
   width="94.432762mm"
   height="27.800797mm"
   viewBox="0 0 94.43276 27.800796"
   version="1.1"
   id="svg3863"
   inkscape:version="0.92.3 (unknown)"
   sodipodi:docname="LOGO_KOnezumi_2.svg">
  <defs
     id="defs3857" />
  <sodipodi:namedview
     id="base"
     pagecolor="#ffffff"
     bordercolor="#666666"
     borderopacity="1.0"
     inkscape:pageopacity="0.0"
     inkscape:pageshadow="2"
     inkscape:zoom="1.4"
     inkscape:cx="78.737092"
     inkscape:cy="-41.575761"
     inkscape:document-units="mm"
     inkscape:current-layer="layer1"
     showgrid="false"
     fit-margin-top="1"
     fit-margin-left="1"
     fit-margin-right="1"
     fit-margin-bottom="1"
     inkscape:window-width="1920"
     inkscape:window-height="1007"
     inkscape:window-x="0"
     inkscape:window-y="1104"
     inkscape:window-maximized="1" />
  <metadata
     id="metadata3860">
    <rdf:RDF>
      <cc:Work
         rdf:about="">
        <dc:format>image/svg+xml</dc:format>
        <dc:type
           rdf:resource="http://purl.org/dc/dcmitype/StillImage" />
        <dc:title />
      </cc:Work>
    </rdf:RDF>
  </metadata>
  <g
     inkscape:label="Layer 1"
     inkscape:groupmode="layer"
     id="layer1"
     transform="translate(-6.5896626,-5.624859)">
    <text
       inkscape:export-ydpi="75.360001"
       inkscape:export-xdpi="75.360001"
       id="text270"
       y="-10.694415"
       x="6.4888649"
       style="font-style:normal;font-weight:normal;font-size:12.59583569px;line-height:1.25;font-family:sans-serif;letter-spacing:0px;word-spacing:0px;isolation:isolate;fill:#000000;fill-opacity:1;stroke:none;stroke-width:0.3148959"
       xml:space="preserve"><tspan
         style="font-style:normal;font-variant:normal;font-weight:bold;font-stretch:normal;font-family:Laksaman;-inkscape-font-specification:'Laksaman Bold';stroke-width:0.3148959"
         y="0.44994733"
         x="6.4888649"
         id="tspan268"
         sodipodi:role="line" /><tspan
         id="tspan272"
         style="font-style:normal;font-variant:normal;font-weight:bold;font-stretch:normal;font-family:Sawasdee;-inkscape-font-specification:'Sawasdee Bold';stroke-width:0.3148959"
         y="16.194742"
         x="6.4888649"
         sodipodi:role="line">KOnezumi</tspan></text>
    <text
       xml:space="preserve"
       style="font-style:normal;font-weight:normal;font-size:6.14116669px;line-height:1.25;font-family:sans-serif;letter-spacing:0px;word-spacing:0px;isolation:isolate;fill:#000000;fill-opacity:1;stroke:none;stroke-width:0.15352917"
       x="7.6410484"
       y="18.038294"
       id="text292"
       inkscape:export-xdpi="75.360001"
       inkscape:export-ydpi="75.360001"><tspan
         sodipodi:role="line"
         id="tspan286"
         x="7.6410484"
         y="24.209446"
         style="font-style:normal;font-variant:normal;font-weight:bold;font-stretch:normal;font-family:Laksaman;-inkscape-font-specification:'Laksaman Bold';stroke-width:0.15352917" /><tspan
         sodipodi:role="line"
         x="7.6410484"
         y="31.885904"
         style="font-style:normal;font-variant:normal;font-weight:normal;font-stretch:normal;font-family:Laksaman;-inkscape-font-specification:Laksaman;stroke-width:0.15352917"
         id="tspan290">automate your knockout strategy</tspan></text>
    <g
       style="opacity:0.83699999;isolation:isolate"
       transform="matrix(0.26749431,0,0,0.26749431,-9.071488,-10.661837)"
       inkscape:export-ydpi="75.360001"
       inkscape:export-xdpi="75.360001"
       id="g13">
      <path
         style="fill:#000000;fill-rule:evenodd"
         inkscape:connector-curvature="0"
         id="path11"
         d="m 86.034,109.532 0.087,0.006 0.088,0.016 0.176,0.059 0.078,0.048 0.235,0.145 0.464,0.311 0.224,0.166 1.86,1.476 1.841,1.491 0.498,0.408 0.976,0.848 0.474,0.445 0.327,0.327 0.615,0.719 0.293,0.37 0.352,0.473 0.678,0.971 0.318,0.498 0.307,0.51 0.562,1.046 0.488,1.09 0.313,0.842 0.185,0.574 0.083,0.295 0.132,0.493 0.185,0.998 0.103,1.004 0.015,0.762 -0.015,0.509 -0.02,0.258 -0.029,0.338 -0.083,0.676 -0.122,0.67 -0.166,0.655 -0.107,0.322 -0.078,0.214 -0.186,0.413 -0.215,0.398 -0.244,0.375 -0.142,0.182 -0.161,0.199 -0.341,0.381 -0.357,0.354 -0.371,0.327 -0.39,0.301 -0.406,0.279 -0.424,0.252 -0.44,0.225 -0.224,0.102 -0.259,0.108 -0.264,0.107 -0.454,0.112 -0.454,0.113 -0.478,0.048 -0.484,0.027 -0.322,0.005 -0.64,-0.064 -0.629,-0.139 -0.611,-0.215 -0.298,-0.145 -0.507,-0.257 -0.508,-0.247 -0.152,-0.065 -0.302,-0.112 -0.308,-0.081 -0.312,-0.032 -0.156,0.011 -0.064,0.118 -0.054,0.021 -0.049,0.038 -0.151,0.123 -0.312,0.226 -0.323,0.193 -0.331,0.161 -0.342,0.139 -0.347,0.108 -0.361,0.08 -0.371,0.048 -0.186,0.016 -0.083,0.011 -0.068,0.038 -0.147,0.102 -0.297,0.171 -0.474,0.215 -0.317,0.129 -0.235,0.085 -0.464,0.108 -0.473,0.053 -0.474,0.011 -0.239,-0.005 h -0.249 l -0.352,0.043 -0.229,0.059 -0.22,0.086 -0.21,0.107 -0.2,0.134 -0.195,0.166 -0.093,0.097 -0.093,0.08 -0.229,0.118 -0.117,0.049 -0.098,0.037 -0.132,0.081 -0.068,0.08 -0.02,0.059 -0.024,0.081 -0.024,0.086 -0.059,-0.065 -0.078,-0.129 -0.015,-0.139 0.044,-0.134 0.054,-0.07 0.185,-0.225 0.293,-0.333 0.215,-0.193 0.122,-0.081 0.049,-0.032 0.044,-0.037 -0.005,-0.027 -0.005,-0.032 -0.415,0.016 -0.42,0.016 -0.112,0.011 -0.215,0.064 -0.19,0.107 -0.176,0.156 -0.078,0.091 -0.166,0.193 -0.186,0.172 -0.073,0.059 -0.146,0.08 -0.157,0.027 -0.166,-0.027 -0.083,-0.032 -0.039,-0.016 -0.088,0.005 -0.044,0.011 -0.058,0.022 -0.088,0.075 -0.078,0.161 -0.029,0.123 -0.054,-0.048 -0.073,-0.102 -0.03,-0.107 0.015,-0.113 0.029,-0.054 0.054,-0.086 0.146,-0.15 0.074,-0.075 0.063,-0.048 0.064,-0.054 0.2,-0.263 0.2,-0.273 -0.093,0.075 -0.171,0.171 -0.078,0.092 -0.073,0.091 -0.127,0.113 -0.102,0.048 -0.059,0.011 -0.098,0.01 -0.18,0.049 -0.142,0.096 -0.078,0.124 -0.029,0.112 -0.01,0.065 -0.054,-0.054 -0.073,-0.113 -0.025,-0.112 0.02,-0.124 0.024,-0.069 0.03,-0.06 0.073,-0.096 0.132,-0.107 0.107,-0.049 0.059,-0.021 0.044,-0.032 0.254,-0.354 0.244,-0.349 H 75.62 l -0.44,-0.011 -0.879,-0.016 -0.434,-0.032 -0.986,-0.118 -0.982,-0.145 H 71.87 l -0.064,0.032 -0.019,0.027 -0.068,0.118 -0.161,0.204 -0.191,0.155 -0.224,0.118 -0.128,0.038 -0.19,0.054 -0.361,0.139 -0.249,0.15 -0.152,0.124 -0.136,0.15 -0.117,0.182 -0.054,0.102 -0.039,0.07 -0.098,0.081 -0.107,0.01 -0.108,-0.059 -0.048,-0.053 0.068,-0.038 0.063,-0.038 -0.029,-0.064 -0.029,-0.123 0.005,-0.172 0.131,-0.311 0.093,-0.204 -0.088,-0.005 -0.175,0.048 -0.157,0.091 -0.122,0.134 -0.044,0.081 -0.092,0.182 -0.103,0.177 -0.034,0.059 -0.073,0.032 -0.059,-0.01 -0.029,-0.027 -0.098,-0.075 -0.098,-0.075 v -0.145 l 0.035,-0.124 0.146,-0.246 0.161,-0.236 -0.014,-0.022 -0.015,-0.016 -0.176,0.182 -0.176,0.177 -0.107,0.092 -0.112,0.085 -0.078,0.033 -0.054,0.043 -0.064,0.134 -0.058,0.161 -0.034,-0.016 -0.059,-0.049 -0.034,-0.064 -0.01,-0.086 0.01,-0.048 0.044,-0.188 0.068,-0.177 0.049,-0.102 0.127,-0.172 0.229,-0.22 0.176,-0.123 -0.073,-0.032 -0.108,-0.022 -0.073,0.038 -0.068,0.118 -0.039,0.091 -0.054,-0.064 -0.029,-0.145 0.039,-0.156 0.112,-0.123 0.078,-0.043 0.293,-0.145 0.283,-0.161 v -0.027 -0.027 l -0.8,-0.058 -0.806,-0.043 h -0.146 l -0.293,0.043 -0.288,0.08 -0.279,0.113 -0.132,0.069 -0.385,0.215 -0.576,0.311 -0.396,0.177 -0.205,0.07 -0.19,0.054 -0.278,0.037 -0.176,-0.005 -0.176,-0.032 -0.171,-0.065 -0.166,-0.091 -0.161,-0.123 -0.073,-0.076 -0.049,-0.048 -0.049,-0.043 -0.098,0.049 -0.18,0.037 -0.161,-0.032 -0.147,-0.113 -0.063,-0.086 -0.064,-0.096 -0.088,-0.225 -0.014,-0.119 -0.005,-0.155 0.029,-0.327 0.025,-0.156 0.268,-1.4 0.278,-1.395 0.093,-0.44 0.205,-0.869 0.127,-0.429 0.088,-0.269 0.195,-0.52 0.22,-0.504 0.244,-0.489 0.269,-0.477 0.293,-0.456 0.317,-0.435 0.342,-0.423 0.18,-0.21 0.069,-0.08 0.102,-0.177 0.054,-0.199 -0.01,-0.214 -0.039,-0.113 -0.059,-0.177 -0.048,-0.177 -0.034,-0.145 -0.049,-0.284 -0.02,-0.279 0.01,-0.274 0.039,-0.268 0.073,-0.258 0.108,-0.252 0.136,-0.241 0.088,-0.118 0.083,-0.108 0.186,-0.182 0.195,-0.15 0.21,-0.113 0.22,-0.075 0.229,-0.038 0.239,-0.005 0.244,0.032 0.128,0.032 0.122,0.033 0.224,0.096 0.195,0.124 0.171,0.15 0.152,0.177 0.122,0.198 0.097,0.226 0.078,0.247 0.03,0.134 0.049,0.316 0.024,0.322 h 0.117 l 0.264,-0.059 0.288,-0.107 0.278,-0.145 0.122,-0.091 0.366,-0.301 0.357,-0.322 0.268,-0.252 0.288,-0.225 0.235,-0.156 0.493,-0.273 0.508,-0.226 0.527,-0.177 0.269,-0.069 0.307,-0.076 0.62,-0.096 0.625,-0.054 h 0.63 l 0.312,0.011 0.293,0.021 0.581,0.059 0.864,0.14 0.572,0.129 0.464,0.118 0.913,0.263 0.893,0.311 0.869,0.359 0.85,0.424 0.815,0.483 0.791,0.547 0.757,0.628 0.361,0.349 0.283,0.295 0.523,0.644 0.244,0.337 0.21,0.301 0.371,0.638 0.327,0.666 0.283,0.686 0.132,0.349 0.102,0.284 0.157,0.569 0.107,0.58 0.034,0.595 -0.019,0.306 v 0.112 l 0.024,0.108 -0.039,0.075 0.064,0.204 0.166,0.381 0.214,0.338 0.274,0.289 0.171,0.124 0.146,0.096 0.313,0.172 0.317,0.134 0.332,0.113 0.171,0.043 0.249,0.059 0.498,0.086 0.503,0.043 0.503,-0.017 0.249,-0.032 0.273,-0.043 0.522,-0.128 0.494,-0.178 0.473,-0.23 0.449,-0.274 0.425,-0.327 0.396,-0.376 0.371,-0.429 0.175,-0.236 0.166,-0.247 0.298,-0.509 0.249,-0.537 0.205,-0.563 0.088,-0.29 0.064,-0.247 0.092,-0.493 0.059,-0.504 0.02,-0.51 v -0.252 l -0.005,-0.269 -0.035,-0.531 -0.097,-0.783 -0.21,-1.03 -0.283,-1.009 -0.166,-0.499 -0.113,-0.327 -0.253,-0.644 -0.288,-0.622 -0.318,-0.601 -0.176,-0.295 -0.249,-0.413 -0.507,-0.81 -0.533,-0.794 -0.576,-0.762 -0.302,-0.365 -0.264,-0.295 -0.552,-0.563 -0.864,-0.805 -0.591,-0.51 -1.02,-0.869 -1.006,-0.885 -0.981,-0.885 -0.967,-0.907 -0.093,-0.091 -0.151,-0.215 -0.054,-0.118 -0.029,-0.091 0.005,-0.15 0.078,-0.108 z" />
    </g>
    <g
       style="opacity:0.83699999;isolation:isolate"
       transform="matrix(0.26749431,0,0,0.26749431,-9.071488,-10.661837)"
       inkscape:export-ydpi="75.360001"
       inkscape:export-xdpi="75.360001"
       id="g17">
      <path
         style="fill:#ff9191;fill-rule:evenodd"
         inkscape:connector-curvature="0"
         id="path15"
         d="m 126.034,109.532 0.087,0.006 0.088,0.016 0.176,0.059 0.078,0.048 0.235,0.145 0.464,0.311 0.224,0.166 1.86,1.476 1.841,1.491 0.498,0.408 0.976,0.848 0.474,0.445 0.327,0.327 0.615,0.719 0.293,0.37 0.352,0.473 0.678,0.971 0.318,0.498 0.307,0.51 0.562,1.046 0.488,1.09 0.313,0.842 0.185,0.574 0.083,0.295 0.132,0.493 0.185,0.998 0.103,1.004 0.015,0.762 -0.015,0.509 -0.02,0.258 -0.029,0.338 -0.083,0.676 -0.122,0.67 -0.166,0.655 -0.107,0.322 -0.078,0.214 -0.186,0.413 -0.215,0.398 -0.244,0.375 -0.142,0.182 -0.161,0.199 -0.341,0.381 -0.357,0.354 -0.371,0.327 -0.39,0.301 -0.406,0.279 -0.424,0.252 -0.44,0.225 -0.224,0.102 -0.259,0.108 -0.264,0.107 -0.454,0.112 -0.454,0.113 -0.478,0.048 -0.484,0.027 -0.322,0.005 -0.64,-0.064 -0.629,-0.139 -0.611,-0.215 -0.298,-0.145 -0.507,-0.257 -0.508,-0.247 -0.152,-0.065 -0.302,-0.112 -0.308,-0.081 -0.312,-0.032 -0.156,0.011 -0.064,0.118 -0.054,0.021 -0.049,0.038 -0.151,0.123 -0.312,0.226 -0.323,0.193 -0.331,0.161 -0.342,0.139 -0.347,0.108 -0.361,0.08 -0.371,0.048 -0.186,0.016 -0.083,0.011 -0.068,0.038 -0.147,0.102 -0.297,0.171 -0.474,0.215 -0.317,0.129 -0.235,0.085 -0.464,0.108 -0.473,0.053 -0.474,0.011 -0.239,-0.005 h -0.249 l -0.352,0.043 -0.229,0.059 -0.22,0.086 -0.21,0.107 -0.2,0.134 -0.195,0.166 -0.093,0.097 -0.093,0.08 -0.229,0.118 -0.117,0.049 -0.098,0.037 -0.132,0.081 -0.068,0.08 -0.02,0.059 -0.024,0.081 -0.024,0.086 -0.059,-0.065 -0.078,-0.129 -0.015,-0.139 0.044,-0.134 0.054,-0.07 0.185,-0.225 0.293,-0.333 0.215,-0.193 0.122,-0.081 0.049,-0.032 0.044,-0.037 -0.005,-0.027 -0.005,-0.032 -0.415,0.016 -0.42,0.016 -0.112,0.011 -0.215,0.064 -0.19,0.107 -0.176,0.156 -0.078,0.091 -0.166,0.193 -0.186,0.172 -0.073,0.059 -0.146,0.08 -0.157,0.027 -0.166,-0.027 -0.083,-0.032 -0.039,-0.016 -0.088,0.005 -0.044,0.011 -0.058,0.022 -0.088,0.075 -0.078,0.161 -0.029,0.123 -0.054,-0.048 -0.073,-0.102 -0.03,-0.107 0.015,-0.113 0.029,-0.054 0.054,-0.086 0.146,-0.15 0.074,-0.075 0.063,-0.048 0.064,-0.054 0.2,-0.263 0.2,-0.273 -0.093,0.075 -0.171,0.171 -0.078,0.092 -0.073,0.091 -0.127,0.113 -0.102,0.048 -0.059,0.011 -0.098,0.01 -0.18,0.049 -0.142,0.096 -0.078,0.124 -0.029,0.112 -0.01,0.065 -0.054,-0.054 -0.073,-0.113 -0.025,-0.112 0.02,-0.124 0.024,-0.069 0.03,-0.06 0.073,-0.096 0.132,-0.107 0.107,-0.049 0.059,-0.021 0.044,-0.032 0.254,-0.354 0.244,-0.349 h -0.117 l -0.44,-0.011 -0.879,-0.016 -0.434,-0.032 -0.986,-0.118 -0.982,-0.145 h -0.029 l -0.064,0.032 -0.019,0.027 -0.068,0.118 -0.161,0.204 -0.191,0.155 -0.224,0.118 -0.128,0.038 -0.19,0.054 -0.361,0.139 -0.249,0.15 -0.152,0.124 -0.136,0.15 -0.117,0.182 -0.054,0.102 -0.039,0.07 -0.098,0.081 -0.107,0.01 -0.108,-0.059 -0.048,-0.053 0.068,-0.038 0.063,-0.038 -0.029,-0.064 -0.029,-0.123 0.005,-0.172 0.131,-0.311 0.093,-0.204 -0.088,-0.005 -0.175,0.048 -0.157,0.091 -0.122,0.134 -0.044,0.081 -0.092,0.182 -0.103,0.177 -0.034,0.059 -0.073,0.032 -0.059,-0.01 -0.029,-0.027 -0.098,-0.075 -0.098,-0.075 v -0.145 l 0.035,-0.124 0.146,-0.246 0.161,-0.236 -0.014,-0.022 -0.015,-0.016 -0.176,0.182 -0.176,0.177 -0.107,0.092 -0.112,0.085 -0.078,0.033 -0.054,0.043 -0.064,0.134 -0.058,0.161 -0.034,-0.016 -0.059,-0.049 -0.034,-0.064 -0.01,-0.086 0.01,-0.048 0.044,-0.188 0.068,-0.177 0.049,-0.102 0.127,-0.172 0.229,-0.22 0.176,-0.123 -0.073,-0.032 -0.108,-0.022 -0.073,0.038 -0.068,0.118 -0.039,0.091 -0.054,-0.064 -0.029,-0.145 0.039,-0.156 0.112,-0.123 0.078,-0.043 0.293,-0.145 0.283,-0.161 v -0.027 -0.027 l -0.8,-0.058 -0.806,-0.043 h -0.146 l -0.293,0.043 -0.288,0.08 -0.279,0.113 -0.132,0.069 -0.385,0.215 -0.576,0.311 -0.396,0.177 -0.205,0.07 -0.19,0.054 -0.278,0.037 -0.176,-0.005 -0.176,-0.032 -0.171,-0.065 -0.166,-0.091 -0.161,-0.123 -0.073,-0.076 -0.049,-0.048 -0.049,-0.043 -0.098,0.049 -0.18,0.037 -0.161,-0.032 -0.147,-0.113 -0.063,-0.086 -0.064,-0.096 -0.088,-0.225 -0.014,-0.119 -0.005,-0.155 0.029,-0.327 0.025,-0.156 0.268,-1.4 0.278,-1.395 0.093,-0.44 0.205,-0.869 0.127,-0.429 0.088,-0.269 0.195,-0.52 0.22,-0.504 0.244,-0.489 0.269,-0.477 0.293,-0.456 0.317,-0.435 0.342,-0.423 0.18,-0.21 0.069,-0.08 0.102,-0.177 0.054,-0.199 -0.01,-0.214 -0.039,-0.113 -0.059,-0.177 -0.048,-0.177 -0.034,-0.145 -0.049,-0.284 -0.02,-0.279 0.01,-0.274 0.039,-0.268 0.073,-0.258 0.108,-0.252 0.136,-0.241 0.088,-0.118 0.083,-0.108 0.186,-0.182 0.195,-0.15 0.21,-0.113 0.22,-0.075 0.229,-0.038 0.239,-0.005 0.244,0.032 0.128,0.032 0.122,0.033 0.224,0.096 0.195,0.124 0.171,0.15 0.152,0.177 0.122,0.198 0.097,0.226 0.078,0.247 0.03,0.134 0.049,0.316 0.024,0.322 h 0.117 l 0.264,-0.059 0.288,-0.107 0.278,-0.145 0.122,-0.091 0.366,-0.301 0.357,-0.322 0.268,-0.252 0.288,-0.225 0.235,-0.156 0.493,-0.273 0.508,-0.226 0.527,-0.177 0.269,-0.069 0.307,-0.076 0.62,-0.096 0.625,-0.054 h 0.63 l 0.312,0.011 0.293,0.021 0.581,0.059 0.864,0.14 0.572,0.129 0.464,0.118 0.913,0.263 0.893,0.311 0.869,0.359 0.85,0.424 0.815,0.483 0.791,0.547 0.757,0.628 0.361,0.349 0.283,0.295 0.523,0.644 0.244,0.337 0.21,0.301 0.371,0.638 0.327,0.666 0.283,0.686 0.132,0.349 0.102,0.284 0.157,0.569 0.107,0.58 0.034,0.595 -0.019,0.306 v 0.112 l 0.024,0.108 -0.039,0.075 0.064,0.204 0.166,0.381 0.214,0.338 0.274,0.289 0.171,0.124 0.146,0.096 0.313,0.172 0.317,0.134 0.332,0.113 0.171,0.043 0.249,0.059 0.498,0.086 0.503,0.043 0.503,-0.017 0.249,-0.032 0.273,-0.043 0.522,-0.128 0.494,-0.178 0.473,-0.23 0.449,-0.274 0.425,-0.327 0.396,-0.376 0.371,-0.429 0.175,-0.236 0.166,-0.247 0.298,-0.509 0.249,-0.537 0.205,-0.563 0.088,-0.29 0.064,-0.247 0.092,-0.493 0.059,-0.504 0.019,-0.51 v -0.252 l -0.004,-0.269 -0.035,-0.531 -0.097,-0.783 -0.21,-1.03 -0.283,-1.009 -0.166,-0.499 -0.113,-0.327 -0.253,-0.644 -0.288,-0.622 -0.318,-0.601 -0.176,-0.295 -0.249,-0.413 -0.507,-0.81 -0.533,-0.794 -0.576,-0.762 -0.302,-0.365 -0.264,-0.295 -0.552,-0.563 -0.864,-0.805 -0.591,-0.51 -1.02,-0.869 -1.006,-0.885 -0.981,-0.885 -0.967,-0.907 -0.093,-0.091 -0.151,-0.215 -0.054,-0.118 -0.029,-0.091 0.005,-0.15 0.078,-0.108 z" />
    </g>
    <g
       style="opacity:0.83699999;isolation:isolate"
       transform="matrix(0.26749431,0,0,0.26749431,-9.071488,-10.661837)"
       inkscape:export-ydpi="75.360001"
       inkscape:export-xdpi="75.360001"
       id="g21">
      <path
         style="fill:#ffd500;fill-rule:evenodd"
         inkscape:connector-curvature="0"
         id="path19"
         d="m 168.034,109.532 0.087,0.006 0.088,0.016 0.176,0.059 0.078,0.048 0.235,0.145 0.464,0.311 0.224,0.166 1.86,1.476 1.841,1.491 0.498,0.408 0.976,0.848 0.474,0.445 0.327,0.327 0.615,0.719 0.293,0.37 0.352,0.473 0.678,0.971 0.318,0.498 0.307,0.51 0.562,1.046 0.488,1.09 0.313,0.842 0.185,0.574 0.083,0.295 0.132,0.493 0.185,0.998 0.103,1.004 0.015,0.762 -0.015,0.509 -0.02,0.258 -0.029,0.338 -0.083,0.676 -0.122,0.67 -0.166,0.655 -0.107,0.322 -0.078,0.214 -0.186,0.413 -0.215,0.398 -0.244,0.375 -0.142,0.182 -0.161,0.199 -0.341,0.381 -0.357,0.354 -0.371,0.327 -0.39,0.301 -0.406,0.279 -0.424,0.252 -0.44,0.225 -0.224,0.102 -0.259,0.108 -0.264,0.107 -0.454,0.112 -0.454,0.113 -0.478,0.048 -0.484,0.027 -0.322,0.005 -0.64,-0.064 -0.629,-0.139 -0.611,-0.215 -0.298,-0.145 -0.507,-0.257 -0.508,-0.247 -0.152,-0.065 -0.302,-0.112 -0.308,-0.081 -0.312,-0.032 -0.156,0.011 -0.064,0.118 -0.054,0.021 -0.049,0.038 -0.151,0.123 -0.312,0.226 -0.323,0.193 -0.331,0.161 -0.342,0.139 -0.347,0.108 -0.361,0.08 -0.371,0.048 -0.186,0.016 -0.083,0.011 -0.068,0.038 -0.147,0.102 -0.297,0.171 -0.474,0.215 -0.317,0.129 -0.235,0.085 -0.464,0.108 -0.473,0.053 -0.474,0.011 -0.239,-0.005 h -0.249 l -0.352,0.043 -0.229,0.059 -0.22,0.086 -0.21,0.107 -0.2,0.134 -0.195,0.166 -0.093,0.097 -0.093,0.08 -0.229,0.118 -0.117,0.049 -0.098,0.037 -0.132,0.081 -0.068,0.08 -0.02,0.059 -0.024,0.081 -0.024,0.086 -0.059,-0.065 -0.078,-0.129 -0.015,-0.139 0.044,-0.134 0.054,-0.07 0.185,-0.225 0.293,-0.333 0.215,-0.193 0.122,-0.081 0.049,-0.032 0.044,-0.037 -0.005,-0.027 -0.005,-0.032 -0.415,0.016 -0.42,0.016 -0.112,0.011 -0.215,0.064 -0.19,0.107 -0.176,0.156 -0.078,0.091 -0.166,0.193 -0.186,0.172 -0.073,0.059 -0.146,0.08 -0.157,0.027 -0.166,-0.027 -0.083,-0.032 -0.039,-0.016 -0.088,0.005 -0.044,0.011 -0.058,0.022 -0.088,0.075 -0.078,0.161 -0.029,0.123 -0.054,-0.048 -0.073,-0.102 -0.03,-0.107 0.015,-0.113 0.029,-0.054 0.054,-0.086 0.146,-0.15 0.074,-0.075 0.063,-0.048 0.064,-0.054 0.2,-0.263 0.2,-0.273 -0.093,0.075 -0.171,0.171 -0.078,0.092 -0.073,0.091 -0.127,0.113 -0.102,0.048 -0.059,0.011 -0.098,0.01 -0.18,0.049 -0.142,0.096 -0.078,0.124 -0.029,0.112 -0.01,0.065 -0.054,-0.054 -0.073,-0.113 -0.025,-0.112 0.02,-0.124 0.024,-0.069 0.03,-0.06 0.073,-0.096 0.132,-0.107 0.107,-0.049 0.059,-0.021 0.044,-0.032 0.254,-0.354 0.244,-0.349 h -0.117 l -0.44,-0.011 -0.879,-0.016 -0.434,-0.032 -0.986,-0.118 -0.982,-0.145 h -0.029 l -0.064,0.032 -0.019,0.027 -0.068,0.118 -0.161,0.204 -0.191,0.155 -0.224,0.118 -0.128,0.038 -0.19,0.054 -0.361,0.139 -0.249,0.15 -0.152,0.124 -0.136,0.15 -0.117,0.182 -0.054,0.102 -0.039,0.07 -0.098,0.081 -0.107,0.01 -0.108,-0.059 -0.048,-0.053 0.068,-0.038 0.063,-0.038 -0.029,-0.064 -0.029,-0.123 0.005,-0.172 0.131,-0.311 0.093,-0.204 -0.088,-0.005 -0.175,0.048 -0.157,0.091 -0.122,0.134 -0.044,0.081 -0.092,0.182 -0.103,0.177 -0.034,0.059 -0.073,0.032 -0.059,-0.01 -0.029,-0.027 -0.098,-0.075 -0.098,-0.075 v -0.145 l 0.035,-0.124 0.146,-0.246 0.161,-0.236 -0.014,-0.022 -0.015,-0.016 -0.176,0.182 -0.176,0.177 -0.107,0.092 -0.112,0.085 -0.078,0.033 -0.054,0.043 -0.064,0.134 -0.058,0.161 -0.034,-0.016 -0.059,-0.049 -0.034,-0.064 -0.01,-0.086 0.01,-0.048 0.044,-0.188 0.068,-0.177 0.049,-0.102 0.127,-0.172 0.229,-0.22 0.176,-0.123 -0.073,-0.032 -0.108,-0.022 -0.073,0.038 -0.068,0.118 -0.039,0.091 -0.054,-0.064 -0.029,-0.145 0.039,-0.156 0.112,-0.123 0.078,-0.043 0.293,-0.145 0.283,-0.161 v -0.027 -0.027 l -0.8,-0.058 -0.806,-0.043 h -0.146 l -0.293,0.043 -0.288,0.08 -0.279,0.113 -0.132,0.069 -0.385,0.215 -0.576,0.311 -0.396,0.177 -0.205,0.07 -0.19,0.054 -0.278,0.037 -0.176,-0.005 -0.176,-0.032 -0.171,-0.065 -0.166,-0.091 -0.161,-0.123 -0.073,-0.076 -0.049,-0.048 -0.049,-0.043 -0.098,0.049 -0.18,0.037 -0.161,-0.032 -0.147,-0.113 -0.063,-0.086 -0.064,-0.096 -0.088,-0.225 -0.014,-0.119 -0.005,-0.155 0.029,-0.327 0.025,-0.156 0.268,-1.4 0.278,-1.395 0.093,-0.44 0.205,-0.869 0.127,-0.429 0.088,-0.269 0.195,-0.52 0.22,-0.504 0.244,-0.489 0.269,-0.477 0.293,-0.456 0.317,-0.435 0.342,-0.423 0.18,-0.21 0.069,-0.08 0.102,-0.177 0.054,-0.199 -0.01,-0.214 -0.039,-0.113 -0.059,-0.177 -0.048,-0.177 -0.034,-0.145 -0.049,-0.284 -0.02,-0.279 0.01,-0.274 0.039,-0.268 0.073,-0.258 0.108,-0.252 0.136,-0.241 0.088,-0.118 0.083,-0.108 0.186,-0.182 0.195,-0.15 0.21,-0.113 0.22,-0.075 0.229,-0.038 0.239,-0.005 0.244,0.032 0.128,0.032 0.122,0.033 0.224,0.096 0.195,0.124 0.171,0.15 0.152,0.177 0.122,0.198 0.097,0.226 0.078,0.247 0.03,0.134 0.049,0.316 0.024,0.322 h 0.117 l 0.264,-0.059 0.288,-0.107 0.278,-0.145 0.122,-0.091 0.366,-0.301 0.357,-0.322 0.268,-0.252 0.288,-0.225 0.235,-0.156 0.493,-0.273 0.508,-0.226 0.527,-0.177 0.269,-0.069 0.307,-0.076 0.62,-0.096 0.625,-0.054 h 0.63 l 0.312,0.011 0.293,0.021 0.581,0.059 0.864,0.14 0.572,0.129 0.464,0.118 0.913,0.263 0.893,0.311 0.869,0.359 0.85,0.424 0.815,0.483 0.791,0.547 0.757,0.628 0.361,0.349 0.283,0.295 0.523,0.644 0.244,0.337 0.21,0.301 0.371,0.638 0.327,0.666 0.283,0.686 0.132,0.349 0.102,0.284 0.157,0.569 0.107,0.58 0.034,0.595 -0.019,0.306 v 0.112 l 0.024,0.108 -0.039,0.075 0.064,0.204 0.166,0.381 0.214,0.338 0.274,0.289 0.171,0.124 0.146,0.096 0.313,0.172 0.317,0.134 0.332,0.113 0.171,0.043 0.249,0.059 0.498,0.086 0.503,0.043 0.503,-0.017 0.249,-0.032 0.273,-0.043 0.522,-0.128 0.494,-0.178 0.473,-0.23 0.449,-0.274 0.425,-0.327 0.396,-0.376 0.371,-0.429 0.175,-0.236 0.166,-0.247 0.298,-0.509 0.249,-0.537 0.205,-0.563 0.088,-0.29 0.064,-0.247 0.092,-0.493 0.059,-0.504 0.019,-0.51 v -0.252 l -0.004,-0.269 -0.035,-0.531 -0.097,-0.783 -0.21,-1.03 -0.283,-1.009 -0.166,-0.499 -0.113,-0.327 -0.253,-0.644 -0.288,-0.622 -0.318,-0.601 -0.176,-0.295 -0.249,-0.413 -0.507,-0.81 -0.533,-0.794 -0.576,-0.762 -0.302,-0.365 -0.264,-0.295 -0.552,-0.563 -0.864,-0.805 -0.591,-0.51 -1.02,-0.869 -1.006,-0.885 -0.981,-0.885 -0.967,-0.907 -0.093,-0.091 -0.151,-0.215 -0.054,-0.118 -0.029,-0.091 0.005,-0.15 0.078,-0.108 z" />
    </g>
    <g
       style="opacity:0.83699999;isolation:isolate"
       transform="matrix(0.26749431,0,0,0.26749431,-9.071488,-10.661837)"
       inkscape:export-ydpi="75.360001"
       inkscape:export-xdpi="75.360001"
       id="g25">
      <path
         style="fill:#8eff51;fill-rule:evenodd"
         inkscape:connector-curvature="0"
         id="path23"
         d="m 208.034,109.532 0.087,0.006 0.088,0.016 0.176,0.059 0.078,0.048 0.235,0.145 0.464,0.311 0.224,0.166 1.86,1.476 1.841,1.491 0.498,0.408 0.976,0.848 0.474,0.445 0.327,0.327 0.615,0.719 0.293,0.37 0.352,0.473 0.678,0.971 0.318,0.498 0.307,0.51 0.562,1.046 0.488,1.09 0.313,0.842 0.185,0.574 0.083,0.295 0.132,0.493 0.185,0.998 0.103,1.004 0.015,0.762 -0.015,0.509 -0.02,0.258 -0.029,0.338 -0.083,0.676 -0.122,0.67 -0.166,0.655 -0.107,0.322 -0.078,0.214 -0.186,0.413 -0.215,0.398 -0.244,0.375 -0.142,0.182 -0.161,0.199 -0.341,0.381 -0.357,0.354 -0.371,0.327 -0.39,0.301 -0.406,0.279 -0.424,0.252 -0.44,0.225 -0.224,0.102 -0.259,0.108 -0.264,0.107 -0.454,0.112 -0.454,0.113 -0.478,0.048 -0.484,0.027 -0.322,0.005 -0.64,-0.064 -0.629,-0.139 -0.611,-0.215 -0.298,-0.145 -0.507,-0.257 -0.508,-0.247 -0.152,-0.065 -0.302,-0.112 -0.308,-0.081 -0.312,-0.032 -0.156,0.011 -0.064,0.118 -0.054,0.021 -0.049,0.038 -0.151,0.123 -0.312,0.226 -0.323,0.193 -0.331,0.161 -0.342,0.139 -0.347,0.108 -0.361,0.08 -0.371,0.048 -0.186,0.016 -0.083,0.011 -0.068,0.038 -0.147,0.102 -0.297,0.171 -0.474,0.215 -0.317,0.129 -0.235,0.085 -0.464,0.108 -0.473,0.053 -0.474,0.011 -0.239,-0.005 h -0.249 l -0.352,0.043 -0.229,0.059 -0.22,0.086 -0.21,0.107 -0.2,0.134 -0.195,0.166 -0.093,0.097 -0.093,0.08 -0.229,0.118 -0.117,0.049 -0.098,0.037 -0.132,0.081 -0.068,0.08 -0.02,0.059 -0.024,0.081 -0.024,0.086 -0.059,-0.065 -0.078,-0.129 -0.015,-0.139 0.044,-0.134 0.054,-0.07 0.185,-0.225 0.293,-0.333 0.215,-0.193 0.122,-0.081 0.049,-0.032 0.044,-0.037 -0.005,-0.027 -0.005,-0.032 -0.415,0.016 -0.42,0.016 -0.112,0.011 -0.215,0.064 -0.19,0.107 -0.176,0.156 -0.078,0.091 -0.166,0.193 -0.186,0.172 -0.073,0.059 -0.146,0.08 -0.157,0.027 -0.166,-0.027 -0.083,-0.032 -0.039,-0.016 -0.088,0.005 -0.044,0.011 -0.058,0.022 -0.088,0.075 -0.078,0.161 -0.029,0.123 -0.054,-0.048 -0.073,-0.102 -0.03,-0.107 0.015,-0.113 0.029,-0.054 0.054,-0.086 0.146,-0.15 0.074,-0.075 0.063,-0.048 0.064,-0.054 0.2,-0.263 0.2,-0.273 -0.093,0.075 -0.171,0.171 -0.078,0.092 -0.073,0.091 -0.127,0.113 -0.102,0.048 -0.059,0.011 -0.098,0.01 -0.18,0.049 -0.142,0.096 -0.078,0.124 -0.029,0.112 -0.01,0.065 -0.054,-0.054 -0.073,-0.113 -0.025,-0.112 0.02,-0.124 0.024,-0.069 0.03,-0.06 0.073,-0.096 0.132,-0.107 0.107,-0.049 0.059,-0.021 0.044,-0.032 0.254,-0.354 0.244,-0.349 h -0.117 l -0.44,-0.011 -0.879,-0.016 -0.434,-0.032 -0.986,-0.118 -0.982,-0.145 h -0.029 l -0.064,0.032 -0.019,0.027 -0.068,0.118 -0.161,0.204 -0.191,0.155 -0.224,0.118 -0.128,0.038 -0.19,0.054 -0.361,0.139 -0.249,0.15 -0.152,0.124 -0.136,0.15 -0.117,0.182 -0.054,0.102 -0.039,0.07 -0.098,0.081 -0.107,0.01 -0.108,-0.059 -0.048,-0.053 0.068,-0.038 0.063,-0.038 -0.029,-0.064 -0.029,-0.123 0.005,-0.172 0.131,-0.311 0.093,-0.204 -0.088,-0.005 -0.175,0.048 -0.157,0.091 -0.122,0.134 -0.044,0.081 -0.092,0.182 -0.103,0.177 -0.034,0.059 -0.073,0.032 -0.059,-0.01 -0.029,-0.027 -0.098,-0.075 -0.098,-0.075 v -0.145 l 0.035,-0.124 0.146,-0.246 0.161,-0.236 -0.014,-0.022 -0.015,-0.016 -0.176,0.182 -0.176,0.177 -0.107,0.092 -0.112,0.085 -0.078,0.033 -0.054,0.043 -0.064,0.134 -0.058,0.161 -0.034,-0.016 -0.059,-0.049 -0.034,-0.064 -0.01,-0.086 0.01,-0.048 0.044,-0.188 0.068,-0.177 0.049,-0.102 0.127,-0.172 0.229,-0.22 0.176,-0.123 -0.073,-0.032 -0.108,-0.022 -0.073,0.038 -0.068,0.118 -0.039,0.091 -0.054,-0.064 -0.029,-0.145 0.039,-0.156 0.112,-0.123 0.078,-0.043 0.293,-0.145 0.283,-0.161 v -0.027 -0.027 l -0.8,-0.058 -0.806,-0.043 h -0.146 l -0.293,0.043 -0.288,0.08 -0.279,0.113 -0.132,0.069 -0.385,0.215 -0.576,0.311 -0.396,0.177 -0.205,0.07 -0.19,0.054 -0.278,0.037 -0.176,-0.005 -0.176,-0.032 -0.171,-0.065 -0.166,-0.091 -0.161,-0.123 -0.073,-0.076 -0.049,-0.048 -0.049,-0.043 -0.098,0.049 -0.18,0.037 -0.161,-0.032 -0.147,-0.113 -0.063,-0.086 -0.064,-0.096 -0.088,-0.225 -0.014,-0.119 -0.005,-0.155 0.029,-0.327 0.025,-0.156 0.268,-1.4 0.278,-1.395 0.093,-0.44 0.205,-0.869 0.127,-0.429 0.088,-0.269 0.195,-0.52 0.22,-0.504 0.244,-0.489 0.269,-0.477 0.293,-0.456 0.317,-0.435 0.342,-0.423 0.18,-0.21 0.069,-0.08 0.102,-0.177 0.054,-0.199 -0.01,-0.214 -0.039,-0.113 -0.059,-0.177 -0.048,-0.177 -0.034,-0.145 -0.049,-0.284 -0.02,-0.279 0.01,-0.274 0.039,-0.268 0.073,-0.258 0.108,-0.252 0.136,-0.241 0.088,-0.118 0.083,-0.108 0.186,-0.182 0.195,-0.15 0.21,-0.113 0.22,-0.075 0.229,-0.038 0.239,-0.005 0.244,0.032 0.128,0.032 0.122,0.033 0.224,0.096 0.195,0.124 0.171,0.15 0.152,0.177 0.122,0.198 0.097,0.226 0.078,0.247 0.03,0.134 0.049,0.316 0.024,0.322 h 0.117 l 0.264,-0.059 0.288,-0.107 0.278,-0.145 0.122,-0.091 0.366,-0.301 0.357,-0.322 0.268,-0.252 0.288,-0.225 0.235,-0.156 0.493,-0.273 0.508,-0.226 0.527,-0.177 0.269,-0.069 0.307,-0.076 0.62,-0.096 0.625,-0.054 h 0.63 l 0.312,0.011 0.293,0.021 0.581,0.059 0.864,0.14 0.572,0.129 0.464,0.118 0.913,0.263 0.893,0.311 0.869,0.359 0.85,0.424 0.815,0.483 0.791,0.547 0.757,0.628 0.361,0.349 0.283,0.295 0.523,0.644 0.244,0.337 0.21,0.301 0.371,0.638 0.327,0.666 0.283,0.686 0.132,0.349 0.102,0.284 0.157,0.569 0.107,0.58 0.034,0.595 -0.019,0.306 v 0.112 l 0.024,0.108 -0.039,0.075 0.064,0.204 0.166,0.381 0.214,0.338 0.274,0.289 0.171,0.124 0.146,0.096 0.313,0.172 0.317,0.134 0.332,0.113 0.171,0.043 0.249,0.059 0.498,0.086 0.503,0.043 0.503,-0.017 0.249,-0.032 0.273,-0.043 0.522,-0.128 0.494,-0.178 0.473,-0.23 0.449,-0.274 0.425,-0.327 0.396,-0.376 0.371,-0.429 0.175,-0.236 0.166,-0.247 0.298,-0.509 0.249,-0.537 0.205,-0.563 0.088,-0.29 0.064,-0.247 0.092,-0.493 0.059,-0.504 0.019,-0.51 v -0.252 l -0.004,-0.269 -0.035,-0.531 -0.097,-0.783 -0.21,-1.03 -0.283,-1.009 -0.166,-0.499 -0.113,-0.327 -0.253,-0.644 -0.288,-0.622 -0.318,-0.601 -0.176,-0.295 -0.249,-0.413 -0.507,-0.81 -0.533,-0.794 -0.576,-0.762 -0.302,-0.365 -0.264,-0.295 -0.552,-0.563 -0.864,-0.805 -0.591,-0.51 -1.02,-0.869 -1.006,-0.885 -0.981,-0.885 -0.967,-0.907 -0.093,-0.091 -0.151,-0.215 -0.054,-0.118 -0.029,-0.091 0.005,-0.15 0.078,-0.108 z" />
    </g>
    <g
       style="opacity:0.83699999;isolation:isolate"
       transform="matrix(0.26749431,0,0,0.26749431,-9.071488,-10.661837)"
       inkscape:export-ydpi="75.360001"
       inkscape:export-xdpi="75.360001"
       id="g29">
      <path
         style="fill:#36f5ff;fill-rule:evenodd"
         inkscape:connector-curvature="0"
         id="path27"
         d="m 248.034,109.532 0.087,0.006 0.088,0.016 0.176,0.059 0.078,0.048 0.235,0.145 0.464,0.311 0.224,0.166 1.86,1.476 1.841,1.491 0.498,0.408 0.976,0.848 0.474,0.445 0.327,0.327 0.615,0.719 0.293,0.37 0.352,0.473 0.678,0.971 0.318,0.498 0.307,0.51 0.562,1.046 0.488,1.09 0.313,0.842 0.185,0.574 0.083,0.295 0.132,0.493 0.185,0.998 0.103,1.004 0.015,0.762 -0.015,0.509 -0.02,0.258 -0.029,0.338 -0.083,0.676 -0.122,0.67 -0.166,0.655 -0.107,0.322 -0.078,0.214 -0.186,0.413 -0.215,0.398 -0.244,0.375 -0.142,0.182 -0.161,0.199 -0.341,0.381 -0.357,0.354 -0.371,0.327 -0.39,0.301 -0.406,0.279 -0.424,0.252 -0.44,0.225 -0.224,0.102 -0.259,0.108 -0.264,0.107 -0.454,0.112 -0.454,0.113 -0.478,0.048 -0.484,0.027 -0.322,0.005 -0.64,-0.064 -0.629,-0.139 -0.611,-0.215 -0.298,-0.145 -0.507,-0.257 -0.508,-0.247 -0.152,-0.065 -0.302,-0.112 -0.308,-0.081 -0.312,-0.032 -0.156,0.011 -0.064,0.118 -0.054,0.021 -0.049,0.038 -0.151,0.123 -0.312,0.226 -0.323,0.193 -0.331,0.161 -0.342,0.139 -0.347,0.108 -0.361,0.08 -0.371,0.048 -0.186,0.016 -0.083,0.011 -0.068,0.038 -0.147,0.102 -0.297,0.171 -0.474,0.215 -0.317,0.129 -0.235,0.085 -0.464,0.108 -0.473,0.053 -0.474,0.011 -0.239,-0.005 h -0.249 l -0.352,0.043 -0.229,0.059 -0.22,0.086 -0.21,0.107 -0.2,0.134 -0.195,0.166 -0.093,0.097 -0.093,0.08 -0.229,0.118 -0.117,0.049 -0.098,0.037 -0.132,0.081 -0.068,0.08 -0.02,0.059 -0.024,0.081 -0.024,0.086 -0.059,-0.065 -0.078,-0.129 -0.015,-0.139 0.044,-0.134 0.054,-0.07 0.185,-0.225 0.293,-0.333 0.215,-0.193 0.122,-0.081 0.049,-0.032 0.044,-0.037 -0.005,-0.027 -0.005,-0.032 -0.415,0.016 -0.42,0.016 -0.112,0.011 -0.215,0.064 -0.19,0.107 -0.176,0.156 -0.078,0.091 -0.166,0.193 -0.186,0.172 -0.073,0.059 -0.146,0.08 -0.157,0.027 -0.166,-0.027 -0.083,-0.032 -0.039,-0.016 -0.088,0.005 -0.044,0.011 -0.058,0.022 -0.088,0.075 -0.078,0.161 -0.029,0.123 -0.054,-0.048 -0.073,-0.102 -0.03,-0.107 0.015,-0.113 0.029,-0.054 0.054,-0.086 0.146,-0.15 0.074,-0.075 0.063,-0.048 0.064,-0.054 0.2,-0.263 0.2,-0.273 -0.093,0.075 -0.171,0.171 -0.078,0.092 -0.073,0.091 -0.127,0.113 -0.102,0.048 -0.059,0.011 -0.098,0.01 -0.18,0.049 -0.142,0.096 -0.078,0.124 -0.029,0.112 -0.01,0.065 -0.054,-0.054 -0.073,-0.113 -0.025,-0.112 0.02,-0.124 0.024,-0.069 0.03,-0.06 0.073,-0.096 0.132,-0.107 0.107,-0.049 0.059,-0.021 0.044,-0.032 0.254,-0.354 0.244,-0.349 h -0.117 l -0.44,-0.011 -0.879,-0.016 -0.434,-0.032 -0.986,-0.118 -0.982,-0.145 h -0.029 l -0.064,0.032 -0.019,0.027 -0.068,0.118 -0.161,0.204 -0.191,0.155 -0.224,0.118 -0.128,0.038 -0.19,0.054 -0.361,0.139 -0.249,0.15 -0.152,0.124 -0.136,0.15 -0.117,0.182 -0.054,0.102 -0.039,0.07 -0.098,0.081 -0.107,0.01 -0.108,-0.059 -0.048,-0.053 0.068,-0.038 0.063,-0.038 -0.029,-0.064 -0.029,-0.123 0.005,-0.172 0.131,-0.311 0.093,-0.204 -0.088,-0.005 -0.175,0.048 -0.157,0.091 -0.122,0.134 -0.044,0.081 -0.092,0.182 -0.103,0.177 -0.034,0.059 -0.073,0.032 -0.059,-0.01 -0.029,-0.027 -0.098,-0.075 -0.098,-0.075 v -0.145 l 0.035,-0.124 0.146,-0.246 0.161,-0.236 -0.014,-0.022 -0.015,-0.016 -0.176,0.182 -0.176,0.177 -0.107,0.092 -0.112,0.085 -0.078,0.033 -0.054,0.043 -0.064,0.134 -0.058,0.161 -0.034,-0.016 -0.059,-0.049 -0.034,-0.064 -0.01,-0.086 0.01,-0.048 0.044,-0.188 0.068,-0.177 0.049,-0.102 0.127,-0.172 0.229,-0.22 0.176,-0.123 -0.073,-0.032 -0.108,-0.022 -0.073,0.038 -0.068,0.118 -0.039,0.091 -0.054,-0.064 -0.029,-0.145 0.039,-0.156 0.112,-0.123 0.078,-0.043 0.293,-0.145 0.283,-0.161 v -0.027 -0.027 l -0.8,-0.058 -0.806,-0.043 h -0.146 l -0.293,0.043 -0.288,0.08 -0.279,0.113 -0.132,0.069 -0.385,0.215 -0.576,0.311 -0.396,0.177 -0.205,0.07 -0.19,0.054 -0.278,0.037 -0.176,-0.005 -0.176,-0.032 -0.171,-0.065 -0.166,-0.091 -0.161,-0.123 -0.073,-0.076 -0.049,-0.048 -0.049,-0.043 -0.098,0.049 -0.18,0.037 -0.161,-0.032 -0.147,-0.113 -0.063,-0.086 -0.064,-0.096 -0.088,-0.225 -0.014,-0.119 -0.005,-0.155 0.029,-0.327 0.025,-0.156 0.268,-1.4 0.278,-1.395 0.093,-0.44 0.205,-0.869 0.127,-0.429 0.088,-0.269 0.195,-0.52 0.22,-0.504 0.244,-0.489 0.269,-0.477 0.293,-0.456 0.317,-0.435 0.342,-0.423 0.18,-0.21 0.069,-0.08 0.102,-0.177 0.054,-0.199 -0.01,-0.214 -0.039,-0.113 -0.059,-0.177 -0.048,-0.177 -0.034,-0.145 -0.049,-0.284 -0.02,-0.279 0.01,-0.274 0.039,-0.268 0.073,-0.258 0.108,-0.252 0.136,-0.241 0.088,-0.118 0.083,-0.108 0.186,-0.182 0.195,-0.15 0.21,-0.113 0.22,-0.075 0.229,-0.038 0.239,-0.005 0.244,0.032 0.128,0.032 0.122,0.033 0.224,0.096 0.195,0.124 0.171,0.15 0.152,0.177 0.122,0.198 0.097,0.226 0.078,0.247 0.03,0.134 0.049,0.316 0.024,0.322 h 0.117 l 0.264,-0.059 0.288,-0.107 0.278,-0.145 0.122,-0.091 0.366,-0.301 0.357,-0.322 0.268,-0.252 0.288,-0.225 0.235,-0.156 0.493,-0.273 0.508,-0.226 0.527,-0.177 0.269,-0.069 0.307,-0.076 0.62,-0.096 0.625,-0.054 h 0.63 l 0.312,0.011 0.293,0.021 0.581,0.059 0.864,0.14 0.572,0.129 0.464,0.118 0.913,0.263 0.893,0.311 0.869,0.359 0.85,0.424 0.815,0.483 0.791,0.547 0.757,0.628 0.361,0.349 0.283,0.295 0.523,0.644 0.244,0.337 0.21,0.301 0.371,0.638 0.327,0.666 0.283,0.686 0.132,0.349 0.102,0.284 0.157,0.569 0.107,0.58 0.034,0.595 -0.019,0.306 v 0.112 l 0.024,0.108 -0.039,0.075 0.064,0.204 0.166,0.381 0.214,0.338 0.274,0.289 0.171,0.124 0.146,0.096 0.313,0.172 0.317,0.134 0.332,0.113 0.171,0.043 0.249,0.059 0.498,0.086 0.503,0.043 0.503,-0.017 0.249,-0.032 0.273,-0.043 0.522,-0.128 0.494,-0.178 0.473,-0.23 0.449,-0.274 0.425,-0.327 0.396,-0.376 0.371,-0.429 0.175,-0.236 0.166,-0.247 0.298,-0.509 0.249,-0.537 0.205,-0.563 0.088,-0.29 0.064,-0.247 0.092,-0.493 0.059,-0.504 0.019,-0.51 v -0.252 l -0.004,-0.269 -0.035,-0.531 -0.097,-0.783 -0.21,-1.03 -0.283,-1.009 -0.166,-0.499 -0.113,-0.327 -0.253,-0.644 -0.288,-0.622 -0.318,-0.601 -0.176,-0.295 -0.249,-0.413 -0.507,-0.81 -0.533,-0.794 -0.576,-0.762 -0.302,-0.365 -0.264,-0.295 -0.552,-0.563 -0.864,-0.805 -0.591,-0.51 -1.02,-0.869 -1.006,-0.885 -0.981,-0.885 -0.967,-0.907 -0.093,-0.091 -0.151,-0.215 -0.054,-0.118 -0.029,-0.091 0.005,-0.15 0.078,-0.108 z" />
    </g>
    <g
       style="opacity:0.83699999;isolation:isolate"
       transform="matrix(0.26749431,0,0,0.26749431,-9.071488,-10.661837)"
       inkscape:export-ydpi="75.360001"
       inkscape:export-xdpi="75.360001"
       id="g33">
      <path
         style="fill:#e62ef7;fill-opacity:0.73999999;fill-rule:evenodd"
         inkscape:connector-curvature="0"
         id="path31"
         d="m 288.034,109.532 0.087,0.006 0.088,0.016 0.176,0.059 0.078,0.048 0.235,0.145 0.464,0.311 0.224,0.166 1.86,1.476 1.841,1.491 0.498,0.408 0.976,0.848 0.474,0.445 0.327,0.327 0.615,0.719 0.293,0.37 0.352,0.473 0.678,0.971 0.318,0.498 0.307,0.51 0.562,1.046 0.488,1.09 0.313,0.842 0.185,0.574 0.083,0.295 0.132,0.493 0.185,0.998 0.103,1.004 0.015,0.762 -0.015,0.509 -0.02,0.258 -0.029,0.338 -0.083,0.676 -0.122,0.67 -0.166,0.655 -0.107,0.322 -0.078,0.214 -0.186,0.413 -0.215,0.398 -0.244,0.375 -0.142,0.182 -0.161,0.199 -0.341,0.381 -0.357,0.354 -0.371,0.327 -0.39,0.301 -0.406,0.279 -0.424,0.252 -0.44,0.225 -0.224,0.102 -0.259,0.108 -0.264,0.107 -0.454,0.112 -0.454,0.113 -0.478,0.048 -0.484,0.027 -0.322,0.005 -0.64,-0.064 -0.629,-0.139 -0.611,-0.215 -0.298,-0.145 -0.507,-0.257 -0.508,-0.247 -0.152,-0.065 -0.302,-0.112 -0.308,-0.081 -0.312,-0.032 -0.156,0.011 -0.064,0.118 -0.054,0.021 -0.049,0.038 -0.151,0.123 -0.312,0.226 -0.323,0.193 -0.331,0.161 -0.342,0.139 -0.347,0.108 -0.361,0.08 -0.371,0.048 -0.186,0.016 -0.083,0.011 -0.068,0.038 -0.147,0.102 -0.297,0.171 -0.474,0.215 -0.317,0.129 -0.235,0.085 -0.464,0.108 -0.473,0.053 -0.474,0.011 -0.239,-0.005 h -0.249 l -0.352,0.043 -0.229,0.059 -0.22,0.086 -0.21,0.107 -0.2,0.134 -0.195,0.166 -0.093,0.097 -0.093,0.08 -0.229,0.118 -0.117,0.049 -0.098,0.037 -0.132,0.081 -0.068,0.08 -0.02,0.059 -0.024,0.081 -0.024,0.086 -0.059,-0.065 -0.078,-0.129 -0.015,-0.139 0.044,-0.134 0.054,-0.07 0.185,-0.225 0.293,-0.333 0.215,-0.193 0.122,-0.081 0.049,-0.032 0.044,-0.037 -0.005,-0.027 -0.005,-0.032 -0.415,0.016 -0.42,0.016 -0.112,0.011 -0.215,0.064 -0.19,0.107 -0.176,0.156 -0.078,0.091 -0.166,0.193 -0.186,0.172 -0.073,0.059 -0.146,0.08 -0.157,0.027 -0.166,-0.027 -0.083,-0.032 -0.039,-0.016 -0.088,0.005 -0.044,0.011 -0.058,0.022 -0.088,0.075 -0.078,0.161 -0.029,0.123 -0.054,-0.048 -0.073,-0.102 -0.03,-0.107 0.015,-0.113 0.029,-0.054 0.054,-0.086 0.146,-0.15 0.074,-0.075 0.063,-0.048 0.064,-0.054 0.2,-0.263 0.2,-0.273 -0.093,0.075 -0.171,0.171 -0.078,0.092 -0.073,0.091 -0.127,0.113 -0.102,0.048 -0.059,0.011 -0.098,0.01 -0.18,0.049 -0.142,0.096 -0.078,0.124 -0.029,0.112 -0.01,0.065 -0.054,-0.054 -0.073,-0.113 -0.025,-0.112 0.02,-0.124 0.024,-0.069 0.03,-0.06 0.073,-0.096 0.132,-0.107 0.107,-0.049 0.059,-0.021 0.044,-0.032 0.254,-0.354 0.244,-0.349 h -0.117 l -0.44,-0.011 -0.879,-0.016 -0.434,-0.032 -0.986,-0.118 -0.982,-0.145 h -0.029 l -0.064,0.032 -0.019,0.027 -0.068,0.118 -0.161,0.204 -0.191,0.155 -0.224,0.118 -0.128,0.038 -0.19,0.054 -0.361,0.139 -0.249,0.15 -0.152,0.124 -0.136,0.15 -0.117,0.182 -0.054,0.102 -0.039,0.07 -0.098,0.081 -0.107,0.01 -0.108,-0.059 -0.048,-0.053 0.068,-0.038 0.063,-0.038 -0.029,-0.064 -0.029,-0.123 0.005,-0.172 0.131,-0.311 0.093,-0.204 -0.088,-0.005 -0.175,0.048 -0.157,0.091 -0.122,0.134 -0.044,0.081 -0.092,0.182 -0.103,0.177 -0.034,0.059 -0.073,0.032 -0.059,-0.01 -0.029,-0.027 -0.098,-0.075 -0.098,-0.075 v -0.145 l 0.035,-0.124 0.146,-0.246 0.161,-0.236 -0.014,-0.022 -0.015,-0.016 -0.176,0.182 -0.176,0.177 -0.107,0.092 -0.112,0.085 -0.078,0.033 -0.054,0.043 -0.064,0.134 -0.058,0.161 -0.034,-0.016 -0.059,-0.049 -0.034,-0.064 -0.01,-0.086 0.01,-0.048 0.044,-0.188 0.068,-0.177 0.049,-0.102 0.127,-0.172 0.229,-0.22 0.176,-0.123 -0.073,-0.032 -0.108,-0.022 -0.073,0.038 -0.068,0.118 -0.039,0.091 -0.054,-0.064 -0.029,-0.145 0.039,-0.156 0.112,-0.123 0.078,-0.043 0.293,-0.145 0.283,-0.161 v -0.027 -0.027 l -0.8,-0.058 -0.806,-0.043 h -0.146 l -0.293,0.043 -0.288,0.08 -0.279,0.113 -0.132,0.069 -0.385,0.215 -0.576,0.311 -0.396,0.177 -0.205,0.07 -0.19,0.054 -0.278,0.037 -0.176,-0.005 -0.176,-0.032 -0.171,-0.065 -0.166,-0.091 -0.161,-0.123 -0.073,-0.076 -0.049,-0.048 -0.049,-0.043 -0.098,0.049 -0.18,0.037 -0.161,-0.032 -0.147,-0.113 -0.063,-0.086 -0.064,-0.096 -0.088,-0.225 -0.014,-0.119 -0.005,-0.155 0.029,-0.327 0.025,-0.156 0.268,-1.4 0.278,-1.395 0.093,-0.44 0.205,-0.869 0.127,-0.429 0.088,-0.269 0.195,-0.52 0.22,-0.504 0.244,-0.489 0.269,-0.477 0.293,-0.456 0.317,-0.435 0.342,-0.423 0.18,-0.21 0.069,-0.08 0.102,-0.177 0.054,-0.199 -0.01,-0.214 -0.039,-0.113 -0.059,-0.177 -0.048,-0.177 -0.034,-0.145 -0.049,-0.284 -0.02,-0.279 0.01,-0.274 0.039,-0.268 0.073,-0.258 0.108,-0.252 0.136,-0.241 0.088,-0.118 0.083,-0.108 0.186,-0.182 0.195,-0.15 0.21,-0.113 0.22,-0.075 0.229,-0.038 0.239,-0.005 0.244,0.032 0.128,0.032 0.122,0.033 0.224,0.096 0.195,0.124 0.171,0.15 0.152,0.177 0.122,0.198 0.097,0.226 0.078,0.247 0.03,0.134 0.049,0.316 0.024,0.322 h 0.117 l 0.264,-0.059 0.288,-0.107 0.278,-0.145 0.122,-0.091 0.366,-0.301 0.357,-0.322 0.268,-0.252 0.288,-0.225 0.235,-0.156 0.493,-0.273 0.508,-0.226 0.527,-0.177 0.269,-0.069 0.307,-0.076 0.62,-0.096 0.625,-0.054 h 0.63 l 0.312,0.011 0.293,0.021 0.581,0.059 0.864,0.14 0.572,0.129 0.464,0.118 0.913,0.263 0.893,0.311 0.869,0.359 0.85,0.424 0.815,0.483 0.791,0.547 0.757,0.628 0.361,0.349 0.283,0.295 0.523,0.644 0.244,0.337 0.21,0.301 0.371,0.638 0.327,0.666 0.283,0.686 0.132,0.349 0.102,0.284 0.157,0.569 0.107,0.58 0.034,0.595 -0.019,0.306 v 0.112 l 0.024,0.108 -0.039,0.075 0.064,0.204 0.166,0.381 0.214,0.338 0.274,0.289 0.171,0.124 0.146,0.096 0.313,0.172 0.317,0.134 0.332,0.113 0.171,0.043 0.249,0.059 0.498,0.086 0.503,0.043 0.503,-0.017 0.249,-0.032 0.273,-0.043 0.522,-0.128 0.494,-0.178 0.473,-0.23 0.449,-0.274 0.425,-0.327 0.396,-0.376 0.371,-0.429 0.175,-0.236 0.166,-0.247 0.298,-0.509 0.249,-0.537 0.205,-0.563 0.088,-0.29 0.064,-0.247 0.092,-0.493 0.059,-0.504 0.019,-0.51 v -0.252 l -0.004,-0.269 -0.035,-0.531 -0.097,-0.783 -0.21,-1.03 -0.283,-1.009 -0.166,-0.499 -0.113,-0.327 -0.253,-0.644 -0.288,-0.622 -0.318,-0.601 -0.176,-0.295 -0.249,-0.413 -0.507,-0.81 -0.533,-0.794 -0.576,-0.762 -0.302,-0.365 -0.264,-0.295 -0.552,-0.563 -0.864,-0.805 -0.591,-0.51 -1.02,-0.869 -1.006,-0.885 -0.981,-0.885 -0.967,-0.907 -0.093,-0.091 -0.151,-0.215 -0.054,-0.118 -0.029,-0.091 0.005,-0.15 0.078,-0.108 z" />
    </g>
    <text
       xml:space="preserve"
       style="font-style:normal;font-weight:normal;font-size:12.59583569px;line-height:1.25;font-family:sans-serif;letter-spacing:0px;word-spacing:0px;isolation:isolate;fill:#000000;fill-opacity:1;stroke:none;stroke-width:0.3148959"
       x="6.4888649"
       y="-10.694415"
       id="text3930"
       inkscape:export-xdpi="75.360001"
       inkscape:export-ydpi="75.360001"><tspan
         sodipodi:role="line"
         id="tspan3926"
         x="6.4888649"
         y="0.44994733"
         style="font-style:normal;font-variant:normal;font-weight:bold;font-stretch:normal;font-family:Laksaman;-inkscape-font-specification:'Laksaman Bold';stroke-width:0.3148959" /><tspan
         sodipodi:role="line"
         x="6.4888649"
         y="16.194742"
         style="font-style:normal;font-variant:normal;font-weight:bold;font-stretch:normal;font-family:Sawasdee;-inkscape-font-specification:'Sawasdee Bold';stroke-width:0.3148959"
         id="tspan3928">KOnezumi</tspan></text>
    <text
       inkscape:export-ydpi="75.360001"
       inkscape:export-xdpi="75.360001"
       id="text3938"
       y="18.038294"
       x="7.6410484"
       style="font-style:normal;font-weight:normal;font-size:6.14116669px;line-height:1.25;font-family:sans-serif;letter-spacing:0px;word-spacing:0px;isolation:isolate;fill:#000000;fill-opacity:1;stroke:none;stroke-width:0.15352917"
       xml:space="preserve"><tspan
         id="tspan3936"
         style="font-style:normal;font-variant:normal;font-weight:bold;font-stretch:normal;font-family:Laksaman;-inkscape-font-specification:'Laksaman Bold';stroke-width:0.15352917"
         y="24.209446"
         x="7.6410484"
         sodipodi:role="line" /></text>
    <g
       id="g3942"
       inkscape:export-xdpi="75.360001"
       inkscape:export-ydpi="75.360001"
       transform="matrix(0.26749431,0,0,0.26749431,-9.071488,-10.661837)"
       style="opacity:0.83699999;isolation:isolate">
      <path
         d="m 86.034,109.532 0.087,0.006 0.088,0.016 0.176,0.059 0.078,0.048 0.235,0.145 0.464,0.311 0.224,0.166 1.86,1.476 1.841,1.491 0.498,0.408 0.976,0.848 0.474,0.445 0.327,0.327 0.615,0.719 0.293,0.37 0.352,0.473 0.678,0.971 0.318,0.498 0.307,0.51 0.562,1.046 0.488,1.09 0.313,0.842 0.185,0.574 0.083,0.295 0.132,0.493 0.185,0.998 0.103,1.004 0.015,0.762 -0.015,0.509 -0.02,0.258 -0.029,0.338 -0.083,0.676 -0.122,0.67 -0.166,0.655 -0.107,0.322 -0.078,0.214 -0.186,0.413 -0.215,0.398 -0.244,0.375 -0.142,0.182 -0.161,0.199 -0.341,0.381 -0.357,0.354 -0.371,0.327 -0.39,0.301 -0.406,0.279 -0.424,0.252 -0.44,0.225 -0.224,0.102 -0.259,0.108 -0.264,0.107 -0.454,0.112 -0.454,0.113 -0.478,0.048 -0.484,0.027 -0.322,0.005 -0.64,-0.064 -0.629,-0.139 -0.611,-0.215 -0.298,-0.145 -0.507,-0.257 -0.508,-0.247 -0.152,-0.065 -0.302,-0.112 -0.308,-0.081 -0.312,-0.032 -0.156,0.011 -0.064,0.118 -0.054,0.021 -0.049,0.038 -0.151,0.123 -0.312,0.226 -0.323,0.193 -0.331,0.161 -0.342,0.139 -0.347,0.108 -0.361,0.08 -0.371,0.048 -0.186,0.016 -0.083,0.011 -0.068,0.038 -0.147,0.102 -0.297,0.171 -0.474,0.215 -0.317,0.129 -0.235,0.085 -0.464,0.108 -0.473,0.053 -0.474,0.011 -0.239,-0.005 h -0.249 l -0.352,0.043 -0.229,0.059 -0.22,0.086 -0.21,0.107 -0.2,0.134 -0.195,0.166 -0.093,0.097 -0.093,0.08 -0.229,0.118 -0.117,0.049 -0.098,0.037 -0.132,0.081 -0.068,0.08 -0.02,0.059 -0.024,0.081 -0.024,0.086 -0.059,-0.065 -0.078,-0.129 -0.015,-0.139 0.044,-0.134 0.054,-0.07 0.185,-0.225 0.293,-0.333 0.215,-0.193 0.122,-0.081 0.049,-0.032 0.044,-0.037 -0.005,-0.027 -0.005,-0.032 -0.415,0.016 -0.42,0.016 -0.112,0.011 -0.215,0.064 -0.19,0.107 -0.176,0.156 -0.078,0.091 -0.166,0.193 -0.186,0.172 -0.073,0.059 -0.146,0.08 -0.157,0.027 -0.166,-0.027 -0.083,-0.032 -0.039,-0.016 -0.088,0.005 -0.044,0.011 -0.058,0.022 -0.088,0.075 -0.078,0.161 -0.029,0.123 -0.054,-0.048 -0.073,-0.102 -0.03,-0.107 0.015,-0.113 0.029,-0.054 0.054,-0.086 0.146,-0.15 0.074,-0.075 0.063,-0.048 0.064,-0.054 0.2,-0.263 0.2,-0.273 -0.093,0.075 -0.171,0.171 -0.078,0.092 -0.073,0.091 -0.127,0.113 -0.102,0.048 -0.059,0.011 -0.098,0.01 -0.18,0.049 -0.142,0.096 -0.078,0.124 -0.029,0.112 -0.01,0.065 -0.054,-0.054 -0.073,-0.113 -0.025,-0.112 0.02,-0.124 0.024,-0.069 0.03,-0.06 0.073,-0.096 0.132,-0.107 0.107,-0.049 0.059,-0.021 0.044,-0.032 0.254,-0.354 0.244,-0.349 H 75.62 l -0.44,-0.011 -0.879,-0.016 -0.434,-0.032 -0.986,-0.118 -0.982,-0.145 H 71.87 l -0.064,0.032 -0.019,0.027 -0.068,0.118 -0.161,0.204 -0.191,0.155 -0.224,0.118 -0.128,0.038 -0.19,0.054 -0.361,0.139 -0.249,0.15 -0.152,0.124 -0.136,0.15 -0.117,0.182 -0.054,0.102 -0.039,0.07 -0.098,0.081 -0.107,0.01 -0.108,-0.059 -0.048,-0.053 0.068,-0.038 0.063,-0.038 -0.029,-0.064 -0.029,-0.123 0.005,-0.172 0.131,-0.311 0.093,-0.204 -0.088,-0.005 -0.175,0.048 -0.157,0.091 -0.122,0.134 -0.044,0.081 -0.092,0.182 -0.103,0.177 -0.034,0.059 -0.073,0.032 -0.059,-0.01 -0.029,-0.027 -0.098,-0.075 -0.098,-0.075 v -0.145 l 0.035,-0.124 0.146,-0.246 0.161,-0.236 -0.014,-0.022 -0.015,-0.016 -0.176,0.182 -0.176,0.177 -0.107,0.092 -0.112,0.085 -0.078,0.033 -0.054,0.043 -0.064,0.134 -0.058,0.161 -0.034,-0.016 -0.059,-0.049 -0.034,-0.064 -0.01,-0.086 0.01,-0.048 0.044,-0.188 0.068,-0.177 0.049,-0.102 0.127,-0.172 0.229,-0.22 0.176,-0.123 -0.073,-0.032 -0.108,-0.022 -0.073,0.038 -0.068,0.118 -0.039,0.091 -0.054,-0.064 -0.029,-0.145 0.039,-0.156 0.112,-0.123 0.078,-0.043 0.293,-0.145 0.283,-0.161 v -0.027 -0.027 l -0.8,-0.058 -0.806,-0.043 h -0.146 l -0.293,0.043 -0.288,0.08 -0.279,0.113 -0.132,0.069 -0.385,0.215 -0.576,0.311 -0.396,0.177 -0.205,0.07 -0.19,0.054 -0.278,0.037 -0.176,-0.005 -0.176,-0.032 -0.171,-0.065 -0.166,-0.091 -0.161,-0.123 -0.073,-0.076 -0.049,-0.048 -0.049,-0.043 -0.098,0.049 -0.18,0.037 -0.161,-0.032 -0.147,-0.113 -0.063,-0.086 -0.064,-0.096 -0.088,-0.225 -0.014,-0.119 -0.005,-0.155 0.029,-0.327 0.025,-0.156 0.268,-1.4 0.278,-1.395 0.093,-0.44 0.205,-0.869 0.127,-0.429 0.088,-0.269 0.195,-0.52 0.22,-0.504 0.244,-0.489 0.269,-0.477 0.293,-0.456 0.317,-0.435 0.342,-0.423 0.18,-0.21 0.069,-0.08 0.102,-0.177 0.054,-0.199 -0.01,-0.214 -0.039,-0.113 -0.059,-0.177 -0.048,-0.177 -0.034,-0.145 -0.049,-0.284 -0.02,-0.279 0.01,-0.274 0.039,-0.268 0.073,-0.258 0.108,-0.252 0.136,-0.241 0.088,-0.118 0.083,-0.108 0.186,-0.182 0.195,-0.15 0.21,-0.113 0.22,-0.075 0.229,-0.038 0.239,-0.005 0.244,0.032 0.128,0.032 0.122,0.033 0.224,0.096 0.195,0.124 0.171,0.15 0.152,0.177 0.122,0.198 0.097,0.226 0.078,0.247 0.03,0.134 0.049,0.316 0.024,0.322 h 0.117 l 0.264,-0.059 0.288,-0.107 0.278,-0.145 0.122,-0.091 0.366,-0.301 0.357,-0.322 0.268,-0.252 0.288,-0.225 0.235,-0.156 0.493,-0.273 0.508,-0.226 0.527,-0.177 0.269,-0.069 0.307,-0.076 0.62,-0.096 0.625,-0.054 h 0.63 l 0.312,0.011 0.293,0.021 0.581,0.059 0.864,0.14 0.572,0.129 0.464,0.118 0.913,0.263 0.893,0.311 0.869,0.359 0.85,0.424 0.815,0.483 0.791,0.547 0.757,0.628 0.361,0.349 0.283,0.295 0.523,0.644 0.244,0.337 0.21,0.301 0.371,0.638 0.327,0.666 0.283,0.686 0.132,0.349 0.102,0.284 0.157,0.569 0.107,0.58 0.034,0.595 -0.019,0.306 v 0.112 l 0.024,0.108 -0.039,0.075 0.064,0.204 0.166,0.381 0.214,0.338 0.274,0.289 0.171,0.124 0.146,0.096 0.313,0.172 0.317,0.134 0.332,0.113 0.171,0.043 0.249,0.059 0.498,0.086 0.503,0.043 0.503,-0.017 0.249,-0.032 0.273,-0.043 0.522,-0.128 0.494,-0.178 0.473,-0.23 0.449,-0.274 0.425,-0.327 0.396,-0.376 0.371,-0.429 0.175,-0.236 0.166,-0.247 0.298,-0.509 0.249,-0.537 0.205,-0.563 0.088,-0.29 0.064,-0.247 0.092,-0.493 0.059,-0.504 0.02,-0.51 v -0.252 l -0.005,-0.269 -0.035,-0.531 -0.097,-0.783 -0.21,-1.03 -0.283,-1.009 -0.166,-0.499 -0.113,-0.327 -0.253,-0.644 -0.288,-0.622 -0.318,-0.601 -0.176,-0.295 -0.249,-0.413 -0.507,-0.81 -0.533,-0.794 -0.576,-0.762 -0.302,-0.365 -0.264,-0.295 -0.552,-0.563 -0.864,-0.805 -0.591,-0.51 -1.02,-0.869 -1.006,-0.885 -0.981,-0.885 -0.967,-0.907 -0.093,-0.091 -0.151,-0.215 -0.054,-0.118 -0.029,-0.091 0.005,-0.15 0.078,-0.108 z"
         id="path3940"
         inkscape:connector-curvature="0"
         style="fill:#000000;fill-rule:evenodd" />
    </g>
    <g
       id="g3946"
       inkscape:export-xdpi="75.360001"
       inkscape:export-ydpi="75.360001"
       transform="matrix(0.26749431,0,0,0.26749431,-9.071488,-10.661837)"
       style="opacity:0.83699999;isolation:isolate">
      <path
         d="m 126.034,109.532 0.087,0.006 0.088,0.016 0.176,0.059 0.078,0.048 0.235,0.145 0.464,0.311 0.224,0.166 1.86,1.476 1.841,1.491 0.498,0.408 0.976,0.848 0.474,0.445 0.327,0.327 0.615,0.719 0.293,0.37 0.352,0.473 0.678,0.971 0.318,0.498 0.307,0.51 0.562,1.046 0.488,1.09 0.313,0.842 0.185,0.574 0.083,0.295 0.132,0.493 0.185,0.998 0.103,1.004 0.015,0.762 -0.015,0.509 -0.02,0.258 -0.029,0.338 -0.083,0.676 -0.122,0.67 -0.166,0.655 -0.107,0.322 -0.078,0.214 -0.186,0.413 -0.215,0.398 -0.244,0.375 -0.142,0.182 -0.161,0.199 -0.341,0.381 -0.357,0.354 -0.371,0.327 -0.39,0.301 -0.406,0.279 -0.424,0.252 -0.44,0.225 -0.224,0.102 -0.259,0.108 -0.264,0.107 -0.454,0.112 -0.454,0.113 -0.478,0.048 -0.484,0.027 -0.322,0.005 -0.64,-0.064 -0.629,-0.139 -0.611,-0.215 -0.298,-0.145 -0.507,-0.257 -0.508,-0.247 -0.152,-0.065 -0.302,-0.112 -0.308,-0.081 -0.312,-0.032 -0.156,0.011 -0.064,0.118 -0.054,0.021 -0.049,0.038 -0.151,0.123 -0.312,0.226 -0.323,0.193 -0.331,0.161 -0.342,0.139 -0.347,0.108 -0.361,0.08 -0.371,0.048 -0.186,0.016 -0.083,0.011 -0.068,0.038 -0.147,0.102 -0.297,0.171 -0.474,0.215 -0.317,0.129 -0.235,0.085 -0.464,0.108 -0.473,0.053 -0.474,0.011 -0.239,-0.005 h -0.249 l -0.352,0.043 -0.229,0.059 -0.22,0.086 -0.21,0.107 -0.2,0.134 -0.195,0.166 -0.093,0.097 -0.093,0.08 -0.229,0.118 -0.117,0.049 -0.098,0.037 -0.132,0.081 -0.068,0.08 -0.02,0.059 -0.024,0.081 -0.024,0.086 -0.059,-0.065 -0.078,-0.129 -0.015,-0.139 0.044,-0.134 0.054,-0.07 0.185,-0.225 0.293,-0.333 0.215,-0.193 0.122,-0.081 0.049,-0.032 0.044,-0.037 -0.005,-0.027 -0.005,-0.032 -0.415,0.016 -0.42,0.016 -0.112,0.011 -0.215,0.064 -0.19,0.107 -0.176,0.156 -0.078,0.091 -0.166,0.193 -0.186,0.172 -0.073,0.059 -0.146,0.08 -0.157,0.027 -0.166,-0.027 -0.083,-0.032 -0.039,-0.016 -0.088,0.005 -0.044,0.011 -0.058,0.022 -0.088,0.075 -0.078,0.161 -0.029,0.123 -0.054,-0.048 -0.073,-0.102 -0.03,-0.107 0.015,-0.113 0.029,-0.054 0.054,-0.086 0.146,-0.15 0.074,-0.075 0.063,-0.048 0.064,-0.054 0.2,-0.263 0.2,-0.273 -0.093,0.075 -0.171,0.171 -0.078,0.092 -0.073,0.091 -0.127,0.113 -0.102,0.048 -0.059,0.011 -0.098,0.01 -0.18,0.049 -0.142,0.096 -0.078,0.124 -0.029,0.112 -0.01,0.065 -0.054,-0.054 -0.073,-0.113 -0.025,-0.112 0.02,-0.124 0.024,-0.069 0.03,-0.06 0.073,-0.096 0.132,-0.107 0.107,-0.049 0.059,-0.021 0.044,-0.032 0.254,-0.354 0.244,-0.349 h -0.117 l -0.44,-0.011 -0.879,-0.016 -0.434,-0.032 -0.986,-0.118 -0.982,-0.145 h -0.029 l -0.064,0.032 -0.019,0.027 -0.068,0.118 -0.161,0.204 -0.191,0.155 -0.224,0.118 -0.128,0.038 -0.19,0.054 -0.361,0.139 -0.249,0.15 -0.152,0.124 -0.136,0.15 -0.117,0.182 -0.054,0.102 -0.039,0.07 -0.098,0.081 -0.107,0.01 -0.108,-0.059 -0.048,-0.053 0.068,-0.038 0.063,-0.038 -0.029,-0.064 -0.029,-0.123 0.005,-0.172 0.131,-0.311 0.093,-0.204 -0.088,-0.005 -0.175,0.048 -0.157,0.091 -0.122,0.134 -0.044,0.081 -0.092,0.182 -0.103,0.177 -0.034,0.059 -0.073,0.032 -0.059,-0.01 -0.029,-0.027 -0.098,-0.075 -0.098,-0.075 v -0.145 l 0.035,-0.124 0.146,-0.246 0.161,-0.236 -0.014,-0.022 -0.015,-0.016 -0.176,0.182 -0.176,0.177 -0.107,0.092 -0.112,0.085 -0.078,0.033 -0.054,0.043 -0.064,0.134 -0.058,0.161 -0.034,-0.016 -0.059,-0.049 -0.034,-0.064 -0.01,-0.086 0.01,-0.048 0.044,-0.188 0.068,-0.177 0.049,-0.102 0.127,-0.172 0.229,-0.22 0.176,-0.123 -0.073,-0.032 -0.108,-0.022 -0.073,0.038 -0.068,0.118 -0.039,0.091 -0.054,-0.064 -0.029,-0.145 0.039,-0.156 0.112,-0.123 0.078,-0.043 0.293,-0.145 0.283,-0.161 v -0.027 -0.027 l -0.8,-0.058 -0.806,-0.043 h -0.146 l -0.293,0.043 -0.288,0.08 -0.279,0.113 -0.132,0.069 -0.385,0.215 -0.576,0.311 -0.396,0.177 -0.205,0.07 -0.19,0.054 -0.278,0.037 -0.176,-0.005 -0.176,-0.032 -0.171,-0.065 -0.166,-0.091 -0.161,-0.123 -0.073,-0.076 -0.049,-0.048 -0.049,-0.043 -0.098,0.049 -0.18,0.037 -0.161,-0.032 -0.147,-0.113 -0.063,-0.086 -0.064,-0.096 -0.088,-0.225 -0.014,-0.119 -0.005,-0.155 0.029,-0.327 0.025,-0.156 0.268,-1.4 0.278,-1.395 0.093,-0.44 0.205,-0.869 0.127,-0.429 0.088,-0.269 0.195,-0.52 0.22,-0.504 0.244,-0.489 0.269,-0.477 0.293,-0.456 0.317,-0.435 0.342,-0.423 0.18,-0.21 0.069,-0.08 0.102,-0.177 0.054,-0.199 -0.01,-0.214 -0.039,-0.113 -0.059,-0.177 -0.048,-0.177 -0.034,-0.145 -0.049,-0.284 -0.02,-0.279 0.01,-0.274 0.039,-0.268 0.073,-0.258 0.108,-0.252 0.136,-0.241 0.088,-0.118 0.083,-0.108 0.186,-0.182 0.195,-0.15 0.21,-0.113 0.22,-0.075 0.229,-0.038 0.239,-0.005 0.244,0.032 0.128,0.032 0.122,0.033 0.224,0.096 0.195,0.124 0.171,0.15 0.152,0.177 0.122,0.198 0.097,0.226 0.078,0.247 0.03,0.134 0.049,0.316 0.024,0.322 h 0.117 l 0.264,-0.059 0.288,-0.107 0.278,-0.145 0.122,-0.091 0.366,-0.301 0.357,-0.322 0.268,-0.252 0.288,-0.225 0.235,-0.156 0.493,-0.273 0.508,-0.226 0.527,-0.177 0.269,-0.069 0.307,-0.076 0.62,-0.096 0.625,-0.054 h 0.63 l 0.312,0.011 0.293,0.021 0.581,0.059 0.864,0.14 0.572,0.129 0.464,0.118 0.913,0.263 0.893,0.311 0.869,0.359 0.85,0.424 0.815,0.483 0.791,0.547 0.757,0.628 0.361,0.349 0.283,0.295 0.523,0.644 0.244,0.337 0.21,0.301 0.371,0.638 0.327,0.666 0.283,0.686 0.132,0.349 0.102,0.284 0.157,0.569 0.107,0.58 0.034,0.595 -0.019,0.306 v 0.112 l 0.024,0.108 -0.039,0.075 0.064,0.204 0.166,0.381 0.214,0.338 0.274,0.289 0.171,0.124 0.146,0.096 0.313,0.172 0.317,0.134 0.332,0.113 0.171,0.043 0.249,0.059 0.498,0.086 0.503,0.043 0.503,-0.017 0.249,-0.032 0.273,-0.043 0.522,-0.128 0.494,-0.178 0.473,-0.23 0.449,-0.274 0.425,-0.327 0.396,-0.376 0.371,-0.429 0.175,-0.236 0.166,-0.247 0.298,-0.509 0.249,-0.537 0.205,-0.563 0.088,-0.29 0.064,-0.247 0.092,-0.493 0.059,-0.504 0.019,-0.51 v -0.252 l -0.004,-0.269 -0.035,-0.531 -0.097,-0.783 -0.21,-1.03 -0.283,-1.009 -0.166,-0.499 -0.113,-0.327 -0.253,-0.644 -0.288,-0.622 -0.318,-0.601 -0.176,-0.295 -0.249,-0.413 -0.507,-0.81 -0.533,-0.794 -0.576,-0.762 -0.302,-0.365 -0.264,-0.295 -0.552,-0.563 -0.864,-0.805 -0.591,-0.51 -1.02,-0.869 -1.006,-0.885 -0.981,-0.885 -0.967,-0.907 -0.093,-0.091 -0.151,-0.215 -0.054,-0.118 -0.029,-0.091 0.005,-0.15 0.078,-0.108 z"
         id="path3944"
         inkscape:connector-curvature="0"
         style="fill:#ff9191;fill-rule:evenodd" />
    </g>
    <g
       id="g3950"
       inkscape:export-xdpi="75.360001"
       inkscape:export-ydpi="75.360001"
       transform="matrix(0.26749431,0,0,0.26749431,-9.071488,-10.661837)"
       style="opacity:0.83699999;isolation:isolate">
      <path
         d="m 168.034,109.532 0.087,0.006 0.088,0.016 0.176,0.059 0.078,0.048 0.235,0.145 0.464,0.311 0.224,0.166 1.86,1.476 1.841,1.491 0.498,0.408 0.976,0.848 0.474,0.445 0.327,0.327 0.615,0.719 0.293,0.37 0.352,0.473 0.678,0.971 0.318,0.498 0.307,0.51 0.562,1.046 0.488,1.09 0.313,0.842 0.185,0.574 0.083,0.295 0.132,0.493 0.185,0.998 0.103,1.004 0.015,0.762 -0.015,0.509 -0.02,0.258 -0.029,0.338 -0.083,0.676 -0.122,0.67 -0.166,0.655 -0.107,0.322 -0.078,0.214 -0.186,0.413 -0.215,0.398 -0.244,0.375 -0.142,0.182 -0.161,0.199 -0.341,0.381 -0.357,0.354 -0.371,0.327 -0.39,0.301 -0.406,0.279 -0.424,0.252 -0.44,0.225 -0.224,0.102 -0.259,0.108 -0.264,0.107 -0.454,0.112 -0.454,0.113 -0.478,0.048 -0.484,0.027 -0.322,0.005 -0.64,-0.064 -0.629,-0.139 -0.611,-0.215 -0.298,-0.145 -0.507,-0.257 -0.508,-0.247 -0.152,-0.065 -0.302,-0.112 -0.308,-0.081 -0.312,-0.032 -0.156,0.011 -0.064,0.118 -0.054,0.021 -0.049,0.038 -0.151,0.123 -0.312,0.226 -0.323,0.193 -0.331,0.161 -0.342,0.139 -0.347,0.108 -0.361,0.08 -0.371,0.048 -0.186,0.016 -0.083,0.011 -0.068,0.038 -0.147,0.102 -0.297,0.171 -0.474,0.215 -0.317,0.129 -0.235,0.085 -0.464,0.108 -0.473,0.053 -0.474,0.011 -0.239,-0.005 h -0.249 l -0.352,0.043 -0.229,0.059 -0.22,0.086 -0.21,0.107 -0.2,0.134 -0.195,0.166 -0.093,0.097 -0.093,0.08 -0.229,0.118 -0.117,0.049 -0.098,0.037 -0.132,0.081 -0.068,0.08 -0.02,0.059 -0.024,0.081 -0.024,0.086 -0.059,-0.065 -0.078,-0.129 -0.015,-0.139 0.044,-0.134 0.054,-0.07 0.185,-0.225 0.293,-0.333 0.215,-0.193 0.122,-0.081 0.049,-0.032 0.044,-0.037 -0.005,-0.027 -0.005,-0.032 -0.415,0.016 -0.42,0.016 -0.112,0.011 -0.215,0.064 -0.19,0.107 -0.176,0.156 -0.078,0.091 -0.166,0.193 -0.186,0.172 -0.073,0.059 -0.146,0.08 -0.157,0.027 -0.166,-0.027 -0.083,-0.032 -0.039,-0.016 -0.088,0.005 -0.044,0.011 -0.058,0.022 -0.088,0.075 -0.078,0.161 -0.029,0.123 -0.054,-0.048 -0.073,-0.102 -0.03,-0.107 0.015,-0.113 0.029,-0.054 0.054,-0.086 0.146,-0.15 0.074,-0.075 0.063,-0.048 0.064,-0.054 0.2,-0.263 0.2,-0.273 -0.093,0.075 -0.171,0.171 -0.078,0.092 -0.073,0.091 -0.127,0.113 -0.102,0.048 -0.059,0.011 -0.098,0.01 -0.18,0.049 -0.142,0.096 -0.078,0.124 -0.029,0.112 -0.01,0.065 -0.054,-0.054 -0.073,-0.113 -0.025,-0.112 0.02,-0.124 0.024,-0.069 0.03,-0.06 0.073,-0.096 0.132,-0.107 0.107,-0.049 0.059,-0.021 0.044,-0.032 0.254,-0.354 0.244,-0.349 h -0.117 l -0.44,-0.011 -0.879,-0.016 -0.434,-0.032 -0.986,-0.118 -0.982,-0.145 h -0.029 l -0.064,0.032 -0.019,0.027 -0.068,0.118 -0.161,0.204 -0.191,0.155 -0.224,0.118 -0.128,0.038 -0.19,0.054 -0.361,0.139 -0.249,0.15 -0.152,0.124 -0.136,0.15 -0.117,0.182 -0.054,0.102 -0.039,0.07 -0.098,0.081 -0.107,0.01 -0.108,-0.059 -0.048,-0.053 0.068,-0.038 0.063,-0.038 -0.029,-0.064 -0.029,-0.123 0.005,-0.172 0.131,-0.311 0.093,-0.204 -0.088,-0.005 -0.175,0.048 -0.157,0.091 -0.122,0.134 -0.044,0.081 -0.092,0.182 -0.103,0.177 -0.034,0.059 -0.073,0.032 -0.059,-0.01 -0.029,-0.027 -0.098,-0.075 -0.098,-0.075 v -0.145 l 0.035,-0.124 0.146,-0.246 0.161,-0.236 -0.014,-0.022 -0.015,-0.016 -0.176,0.182 -0.176,0.177 -0.107,0.092 -0.112,0.085 -0.078,0.033 -0.054,0.043 -0.064,0.134 -0.058,0.161 -0.034,-0.016 -0.059,-0.049 -0.034,-0.064 -0.01,-0.086 0.01,-0.048 0.044,-0.188 0.068,-0.177 0.049,-0.102 0.127,-0.172 0.229,-0.22 0.176,-0.123 -0.073,-0.032 -0.108,-0.022 -0.073,0.038 -0.068,0.118 -0.039,0.091 -0.054,-0.064 -0.029,-0.145 0.039,-0.156 0.112,-0.123 0.078,-0.043 0.293,-0.145 0.283,-0.161 v -0.027 -0.027 l -0.8,-0.058 -0.806,-0.043 h -0.146 l -0.293,0.043 -0.288,0.08 -0.279,0.113 -0.132,0.069 -0.385,0.215 -0.576,0.311 -0.396,0.177 -0.205,0.07 -0.19,0.054 -0.278,0.037 -0.176,-0.005 -0.176,-0.032 -0.171,-0.065 -0.166,-0.091 -0.161,-0.123 -0.073,-0.076 -0.049,-0.048 -0.049,-0.043 -0.098,0.049 -0.18,0.037 -0.161,-0.032 -0.147,-0.113 -0.063,-0.086 -0.064,-0.096 -0.088,-0.225 -0.014,-0.119 -0.005,-0.155 0.029,-0.327 0.025,-0.156 0.268,-1.4 0.278,-1.395 0.093,-0.44 0.205,-0.869 0.127,-0.429 0.088,-0.269 0.195,-0.52 0.22,-0.504 0.244,-0.489 0.269,-0.477 0.293,-0.456 0.317,-0.435 0.342,-0.423 0.18,-0.21 0.069,-0.08 0.102,-0.177 0.054,-0.199 -0.01,-0.214 -0.039,-0.113 -0.059,-0.177 -0.048,-0.177 -0.034,-0.145 -0.049,-0.284 -0.02,-0.279 0.01,-0.274 0.039,-0.268 0.073,-0.258 0.108,-0.252 0.136,-0.241 0.088,-0.118 0.083,-0.108 0.186,-0.182 0.195,-0.15 0.21,-0.113 0.22,-0.075 0.229,-0.038 0.239,-0.005 0.244,0.032 0.128,0.032 0.122,0.033 0.224,0.096 0.195,0.124 0.171,0.15 0.152,0.177 0.122,0.198 0.097,0.226 0.078,0.247 0.03,0.134 0.049,0.316 0.024,0.322 h 0.117 l 0.264,-0.059 0.288,-0.107 0.278,-0.145 0.122,-0.091 0.366,-0.301 0.357,-0.322 0.268,-0.252 0.288,-0.225 0.235,-0.156 0.493,-0.273 0.508,-0.226 0.527,-0.177 0.269,-0.069 0.307,-0.076 0.62,-0.096 0.625,-0.054 h 0.63 l 0.312,0.011 0.293,0.021 0.581,0.059 0.864,0.14 0.572,0.129 0.464,0.118 0.913,0.263 0.893,0.311 0.869,0.359 0.85,0.424 0.815,0.483 0.791,0.547 0.757,0.628 0.361,0.349 0.283,0.295 0.523,0.644 0.244,0.337 0.21,0.301 0.371,0.638 0.327,0.666 0.283,0.686 0.132,0.349 0.102,0.284 0.157,0.569 0.107,0.58 0.034,0.595 -0.019,0.306 v 0.112 l 0.024,0.108 -0.039,0.075 0.064,0.204 0.166,0.381 0.214,0.338 0.274,0.289 0.171,0.124 0.146,0.096 0.313,0.172 0.317,0.134 0.332,0.113 0.171,0.043 0.249,0.059 0.498,0.086 0.503,0.043 0.503,-0.017 0.249,-0.032 0.273,-0.043 0.522,-0.128 0.494,-0.178 0.473,-0.23 0.449,-0.274 0.425,-0.327 0.396,-0.376 0.371,-0.429 0.175,-0.236 0.166,-0.247 0.298,-0.509 0.249,-0.537 0.205,-0.563 0.088,-0.29 0.064,-0.247 0.092,-0.493 0.059,-0.504 0.019,-0.51 v -0.252 l -0.004,-0.269 -0.035,-0.531 -0.097,-0.783 -0.21,-1.03 -0.283,-1.009 -0.166,-0.499 -0.113,-0.327 -0.253,-0.644 -0.288,-0.622 -0.318,-0.601 -0.176,-0.295 -0.249,-0.413 -0.507,-0.81 -0.533,-0.794 -0.576,-0.762 -0.302,-0.365 -0.264,-0.295 -0.552,-0.563 -0.864,-0.805 -0.591,-0.51 -1.02,-0.869 -1.006,-0.885 -0.981,-0.885 -0.967,-0.907 -0.093,-0.091 -0.151,-0.215 -0.054,-0.118 -0.029,-0.091 0.005,-0.15 0.078,-0.108 z"
         id="path3948"
         inkscape:connector-curvature="0"
         style="fill:#ffd500;fill-rule:evenodd" />
    </g>
    <g
       id="g3954"
       inkscape:export-xdpi="75.360001"
       inkscape:export-ydpi="75.360001"
       transform="matrix(0.26749431,0,0,0.26749431,-9.071488,-10.661837)"
       style="opacity:0.83699999;isolation:isolate">
      <path
         d="m 208.034,109.532 0.087,0.006 0.088,0.016 0.176,0.059 0.078,0.048 0.235,0.145 0.464,0.311 0.224,0.166 1.86,1.476 1.841,1.491 0.498,0.408 0.976,0.848 0.474,0.445 0.327,0.327 0.615,0.719 0.293,0.37 0.352,0.473 0.678,0.971 0.318,0.498 0.307,0.51 0.562,1.046 0.488,1.09 0.313,0.842 0.185,0.574 0.083,0.295 0.132,0.493 0.185,0.998 0.103,1.004 0.015,0.762 -0.015,0.509 -0.02,0.258 -0.029,0.338 -0.083,0.676 -0.122,0.67 -0.166,0.655 -0.107,0.322 -0.078,0.214 -0.186,0.413 -0.215,0.398 -0.244,0.375 -0.142,0.182 -0.161,0.199 -0.341,0.381 -0.357,0.354 -0.371,0.327 -0.39,0.301 -0.406,0.279 -0.424,0.252 -0.44,0.225 -0.224,0.102 -0.259,0.108 -0.264,0.107 -0.454,0.112 -0.454,0.113 -0.478,0.048 -0.484,0.027 -0.322,0.005 -0.64,-0.064 -0.629,-0.139 -0.611,-0.215 -0.298,-0.145 -0.507,-0.257 -0.508,-0.247 -0.152,-0.065 -0.302,-0.112 -0.308,-0.081 -0.312,-0.032 -0.156,0.011 -0.064,0.118 -0.054,0.021 -0.049,0.038 -0.151,0.123 -0.312,0.226 -0.323,0.193 -0.331,0.161 -0.342,0.139 -0.347,0.108 -0.361,0.08 -0.371,0.048 -0.186,0.016 -0.083,0.011 -0.068,0.038 -0.147,0.102 -0.297,0.171 -0.474,0.215 -0.317,0.129 -0.235,0.085 -0.464,0.108 -0.473,0.053 -0.474,0.011 -0.239,-0.005 h -0.249 l -0.352,0.043 -0.229,0.059 -0.22,0.086 -0.21,0.107 -0.2,0.134 -0.195,0.166 -0.093,0.097 -0.093,0.08 -0.229,0.118 -0.117,0.049 -0.098,0.037 -0.132,0.081 -0.068,0.08 -0.02,0.059 -0.024,0.081 -0.024,0.086 -0.059,-0.065 -0.078,-0.129 -0.015,-0.139 0.044,-0.134 0.054,-0.07 0.185,-0.225 0.293,-0.333 0.215,-0.193 0.122,-0.081 0.049,-0.032 0.044,-0.037 -0.005,-0.027 -0.005,-0.032 -0.415,0.016 -0.42,0.016 -0.112,0.011 -0.215,0.064 -0.19,0.107 -0.176,0.156 -0.078,0.091 -0.166,0.193 -0.186,0.172 -0.073,0.059 -0.146,0.08 -0.157,0.027 -0.166,-0.027 -0.083,-0.032 -0.039,-0.016 -0.088,0.005 -0.044,0.011 -0.058,0.022 -0.088,0.075 -0.078,0.161 -0.029,0.123 -0.054,-0.048 -0.073,-0.102 -0.03,-0.107 0.015,-0.113 0.029,-0.054 0.054,-0.086 0.146,-0.15 0.074,-0.075 0.063,-0.048 0.064,-0.054 0.2,-0.263 0.2,-0.273 -0.093,0.075 -0.171,0.171 -0.078,0.092 -0.073,0.091 -0.127,0.113 -0.102,0.048 -0.059,0.011 -0.098,0.01 -0.18,0.049 -0.142,0.096 -0.078,0.124 -0.029,0.112 -0.01,0.065 -0.054,-0.054 -0.073,-0.113 -0.025,-0.112 0.02,-0.124 0.024,-0.069 0.03,-0.06 0.073,-0.096 0.132,-0.107 0.107,-0.049 0.059,-0.021 0.044,-0.032 0.254,-0.354 0.244,-0.349 h -0.117 l -0.44,-0.011 -0.879,-0.016 -0.434,-0.032 -0.986,-0.118 -0.982,-0.145 h -0.029 l -0.064,0.032 -0.019,0.027 -0.068,0.118 -0.161,0.204 -0.191,0.155 -0.224,0.118 -0.128,0.038 -0.19,0.054 -0.361,0.139 -0.249,0.15 -0.152,0.124 -0.136,0.15 -0.117,0.182 -0.054,0.102 -0.039,0.07 -0.098,0.081 -0.107,0.01 -0.108,-0.059 -0.048,-0.053 0.068,-0.038 0.063,-0.038 -0.029,-0.064 -0.029,-0.123 0.005,-0.172 0.131,-0.311 0.093,-0.204 -0.088,-0.005 -0.175,0.048 -0.157,0.091 -0.122,0.134 -0.044,0.081 -0.092,0.182 -0.103,0.177 -0.034,0.059 -0.073,0.032 -0.059,-0.01 -0.029,-0.027 -0.098,-0.075 -0.098,-0.075 v -0.145 l 0.035,-0.124 0.146,-0.246 0.161,-0.236 -0.014,-0.022 -0.015,-0.016 -0.176,0.182 -0.176,0.177 -0.107,0.092 -0.112,0.085 -0.078,0.033 -0.054,0.043 -0.064,0.134 -0.058,0.161 -0.034,-0.016 -0.059,-0.049 -0.034,-0.064 -0.01,-0.086 0.01,-0.048 0.044,-0.188 0.068,-0.177 0.049,-0.102 0.127,-0.172 0.229,-0.22 0.176,-0.123 -0.073,-0.032 -0.108,-0.022 -0.073,0.038 -0.068,0.118 -0.039,0.091 -0.054,-0.064 -0.029,-0.145 0.039,-0.156 0.112,-0.123 0.078,-0.043 0.293,-0.145 0.283,-0.161 v -0.027 -0.027 l -0.8,-0.058 -0.806,-0.043 h -0.146 l -0.293,0.043 -0.288,0.08 -0.279,0.113 -0.132,0.069 -0.385,0.215 -0.576,0.311 -0.396,0.177 -0.205,0.07 -0.19,0.054 -0.278,0.037 -0.176,-0.005 -0.176,-0.032 -0.171,-0.065 -0.166,-0.091 -0.161,-0.123 -0.073,-0.076 -0.049,-0.048 -0.049,-0.043 -0.098,0.049 -0.18,0.037 -0.161,-0.032 -0.147,-0.113 -0.063,-0.086 -0.064,-0.096 -0.088,-0.225 -0.014,-0.119 -0.005,-0.155 0.029,-0.327 0.025,-0.156 0.268,-1.4 0.278,-1.395 0.093,-0.44 0.205,-0.869 0.127,-0.429 0.088,-0.269 0.195,-0.52 0.22,-0.504 0.244,-0.489 0.269,-0.477 0.293,-0.456 0.317,-0.435 0.342,-0.423 0.18,-0.21 0.069,-0.08 0.102,-0.177 0.054,-0.199 -0.01,-0.214 -0.039,-0.113 -0.059,-0.177 -0.048,-0.177 -0.034,-0.145 -0.049,-0.284 -0.02,-0.279 0.01,-0.274 0.039,-0.268 0.073,-0.258 0.108,-0.252 0.136,-0.241 0.088,-0.118 0.083,-0.108 0.186,-0.182 0.195,-0.15 0.21,-0.113 0.22,-0.075 0.229,-0.038 0.239,-0.005 0.244,0.032 0.128,0.032 0.122,0.033 0.224,0.096 0.195,0.124 0.171,0.15 0.152,0.177 0.122,0.198 0.097,0.226 0.078,0.247 0.03,0.134 0.049,0.316 0.024,0.322 h 0.117 l 0.264,-0.059 0.288,-0.107 0.278,-0.145 0.122,-0.091 0.366,-0.301 0.357,-0.322 0.268,-0.252 0.288,-0.225 0.235,-0.156 0.493,-0.273 0.508,-0.226 0.527,-0.177 0.269,-0.069 0.307,-0.076 0.62,-0.096 0.625,-0.054 h 0.63 l 0.312,0.011 0.293,0.021 0.581,0.059 0.864,0.14 0.572,0.129 0.464,0.118 0.913,0.263 0.893,0.311 0.869,0.359 0.85,0.424 0.815,0.483 0.791,0.547 0.757,0.628 0.361,0.349 0.283,0.295 0.523,0.644 0.244,0.337 0.21,0.301 0.371,0.638 0.327,0.666 0.283,0.686 0.132,0.349 0.102,0.284 0.157,0.569 0.107,0.58 0.034,0.595 -0.019,0.306 v 0.112 l 0.024,0.108 -0.039,0.075 0.064,0.204 0.166,0.381 0.214,0.338 0.274,0.289 0.171,0.124 0.146,0.096 0.313,0.172 0.317,0.134 0.332,0.113 0.171,0.043 0.249,0.059 0.498,0.086 0.503,0.043 0.503,-0.017 0.249,-0.032 0.273,-0.043 0.522,-0.128 0.494,-0.178 0.473,-0.23 0.449,-0.274 0.425,-0.327 0.396,-0.376 0.371,-0.429 0.175,-0.236 0.166,-0.247 0.298,-0.509 0.249,-0.537 0.205,-0.563 0.088,-0.29 0.064,-0.247 0.092,-0.493 0.059,-0.504 0.019,-0.51 v -0.252 l -0.004,-0.269 -0.035,-0.531 -0.097,-0.783 -0.21,-1.03 -0.283,-1.009 -0.166,-0.499 -0.113,-0.327 -0.253,-0.644 -0.288,-0.622 -0.318,-0.601 -0.176,-0.295 -0.249,-0.413 -0.507,-0.81 -0.533,-0.794 -0.576,-0.762 -0.302,-0.365 -0.264,-0.295 -0.552,-0.563 -0.864,-0.805 -0.591,-0.51 -1.02,-0.869 -1.006,-0.885 -0.981,-0.885 -0.967,-0.907 -0.093,-0.091 -0.151,-0.215 -0.054,-0.118 -0.029,-0.091 0.005,-0.15 0.078,-0.108 z"
         id="path3952"
         inkscape:connector-curvature="0"
         style="fill:#8eff51;fill-rule:evenodd" />
    </g>
    <g
       id="g3958"
       inkscape:export-xdpi="75.360001"
       inkscape:export-ydpi="75.360001"
       transform="matrix(0.26749431,0,0,0.26749431,-9.071488,-10.661837)"
       style="opacity:0.83699999;isolation:isolate">
      <path
         d="m 248.034,109.532 0.087,0.006 0.088,0.016 0.176,0.059 0.078,0.048 0.235,0.145 0.464,0.311 0.224,0.166 1.86,1.476 1.841,1.491 0.498,0.408 0.976,0.848 0.474,0.445 0.327,0.327 0.615,0.719 0.293,0.37 0.352,0.473 0.678,0.971 0.318,0.498 0.307,0.51 0.562,1.046 0.488,1.09 0.313,0.842 0.185,0.574 0.083,0.295 0.132,0.493 0.185,0.998 0.103,1.004 0.015,0.762 -0.015,0.509 -0.02,0.258 -0.029,0.338 -0.083,0.676 -0.122,0.67 -0.166,0.655 -0.107,0.322 -0.078,0.214 -0.186,0.413 -0.215,0.398 -0.244,0.375 -0.142,0.182 -0.161,0.199 -0.341,0.381 -0.357,0.354 -0.371,0.327 -0.39,0.301 -0.406,0.279 -0.424,0.252 -0.44,0.225 -0.224,0.102 -0.259,0.108 -0.264,0.107 -0.454,0.112 -0.454,0.113 -0.478,0.048 -0.484,0.027 -0.322,0.005 -0.64,-0.064 -0.629,-0.139 -0.611,-0.215 -0.298,-0.145 -0.507,-0.257 -0.508,-0.247 -0.152,-0.065 -0.302,-0.112 -0.308,-0.081 -0.312,-0.032 -0.156,0.011 -0.064,0.118 -0.054,0.021 -0.049,0.038 -0.151,0.123 -0.312,0.226 -0.323,0.193 -0.331,0.161 -0.342,0.139 -0.347,0.108 -0.361,0.08 -0.371,0.048 -0.186,0.016 -0.083,0.011 -0.068,0.038 -0.147,0.102 -0.297,0.171 -0.474,0.215 -0.317,0.129 -0.235,0.085 -0.464,0.108 -0.473,0.053 -0.474,0.011 -0.239,-0.005 h -0.249 l -0.352,0.043 -0.229,0.059 -0.22,0.086 -0.21,0.107 -0.2,0.134 -0.195,0.166 -0.093,0.097 -0.093,0.08 -0.229,0.118 -0.117,0.049 -0.098,0.037 -0.132,0.081 -0.068,0.08 -0.02,0.059 -0.024,0.081 -0.024,0.086 -0.059,-0.065 -0.078,-0.129 -0.015,-0.139 0.044,-0.134 0.054,-0.07 0.185,-0.225 0.293,-0.333 0.215,-0.193 0.122,-0.081 0.049,-0.032 0.044,-0.037 -0.005,-0.027 -0.005,-0.032 -0.415,0.016 -0.42,0.016 -0.112,0.011 -0.215,0.064 -0.19,0.107 -0.176,0.156 -0.078,0.091 -0.166,0.193 -0.186,0.172 -0.073,0.059 -0.146,0.08 -0.157,0.027 -0.166,-0.027 -0.083,-0.032 -0.039,-0.016 -0.088,0.005 -0.044,0.011 -0.058,0.022 -0.088,0.075 -0.078,0.161 -0.029,0.123 -0.054,-0.048 -0.073,-0.102 -0.03,-0.107 0.015,-0.113 0.029,-0.054 0.054,-0.086 0.146,-0.15 0.074,-0.075 0.063,-0.048 0.064,-0.054 0.2,-0.263 0.2,-0.273 -0.093,0.075 -0.171,0.171 -0.078,0.092 -0.073,0.091 -0.127,0.113 -0.102,0.048 -0.059,0.011 -0.098,0.01 -0.18,0.049 -0.142,0.096 -0.078,0.124 -0.029,0.112 -0.01,0.065 -0.054,-0.054 -0.073,-0.113 -0.025,-0.112 0.02,-0.124 0.024,-0.069 0.03,-0.06 0.073,-0.096 0.132,-0.107 0.107,-0.049 0.059,-0.021 0.044,-0.032 0.254,-0.354 0.244,-0.349 h -0.117 l -0.44,-0.011 -0.879,-0.016 -0.434,-0.032 -0.986,-0.118 -0.982,-0.145 h -0.029 l -0.064,0.032 -0.019,0.027 -0.068,0.118 -0.161,0.204 -0.191,0.155 -0.224,0.118 -0.128,0.038 -0.19,0.054 -0.361,0.139 -0.249,0.15 -0.152,0.124 -0.136,0.15 -0.117,0.182 -0.054,0.102 -0.039,0.07 -0.098,0.081 -0.107,0.01 -0.108,-0.059 -0.048,-0.053 0.068,-0.038 0.063,-0.038 -0.029,-0.064 -0.029,-0.123 0.005,-0.172 0.131,-0.311 0.093,-0.204 -0.088,-0.005 -0.175,0.048 -0.157,0.091 -0.122,0.134 -0.044,0.081 -0.092,0.182 -0.103,0.177 -0.034,0.059 -0.073,0.032 -0.059,-0.01 -0.029,-0.027 -0.098,-0.075 -0.098,-0.075 v -0.145 l 0.035,-0.124 0.146,-0.246 0.161,-0.236 -0.014,-0.022 -0.015,-0.016 -0.176,0.182 -0.176,0.177 -0.107,0.092 -0.112,0.085 -0.078,0.033 -0.054,0.043 -0.064,0.134 -0.058,0.161 -0.034,-0.016 -0.059,-0.049 -0.034,-0.064 -0.01,-0.086 0.01,-0.048 0.044,-0.188 0.068,-0.177 0.049,-0.102 0.127,-0.172 0.229,-0.22 0.176,-0.123 -0.073,-0.032 -0.108,-0.022 -0.073,0.038 -0.068,0.118 -0.039,0.091 -0.054,-0.064 -0.029,-0.145 0.039,-0.156 0.112,-0.123 0.078,-0.043 0.293,-0.145 0.283,-0.161 v -0.027 -0.027 l -0.8,-0.058 -0.806,-0.043 h -0.146 l -0.293,0.043 -0.288,0.08 -0.279,0.113 -0.132,0.069 -0.385,0.215 -0.576,0.311 -0.396,0.177 -0.205,0.07 -0.19,0.054 -0.278,0.037 -0.176,-0.005 -0.176,-0.032 -0.171,-0.065 -0.166,-0.091 -0.161,-0.123 -0.073,-0.076 -0.049,-0.048 -0.049,-0.043 -0.098,0.049 -0.18,0.037 -0.161,-0.032 -0.147,-0.113 -0.063,-0.086 -0.064,-0.096 -0.088,-0.225 -0.014,-0.119 -0.005,-0.155 0.029,-0.327 0.025,-0.156 0.268,-1.4 0.278,-1.395 0.093,-0.44 0.205,-0.869 0.127,-0.429 0.088,-0.269 0.195,-0.52 0.22,-0.504 0.244,-0.489 0.269,-0.477 0.293,-0.456 0.317,-0.435 0.342,-0.423 0.18,-0.21 0.069,-0.08 0.102,-0.177 0.054,-0.199 -0.01,-0.214 -0.039,-0.113 -0.059,-0.177 -0.048,-0.177 -0.034,-0.145 -0.049,-0.284 -0.02,-0.279 0.01,-0.274 0.039,-0.268 0.073,-0.258 0.108,-0.252 0.136,-0.241 0.088,-0.118 0.083,-0.108 0.186,-0.182 0.195,-0.15 0.21,-0.113 0.22,-0.075 0.229,-0.038 0.239,-0.005 0.244,0.032 0.128,0.032 0.122,0.033 0.224,0.096 0.195,0.124 0.171,0.15 0.152,0.177 0.122,0.198 0.097,0.226 0.078,0.247 0.03,0.134 0.049,0.316 0.024,0.322 h 0.117 l 0.264,-0.059 0.288,-0.107 0.278,-0.145 0.122,-0.091 0.366,-0.301 0.357,-0.322 0.268,-0.252 0.288,-0.225 0.235,-0.156 0.493,-0.273 0.508,-0.226 0.527,-0.177 0.269,-0.069 0.307,-0.076 0.62,-0.096 0.625,-0.054 h 0.63 l 0.312,0.011 0.293,0.021 0.581,0.059 0.864,0.14 0.572,0.129 0.464,0.118 0.913,0.263 0.893,0.311 0.869,0.359 0.85,0.424 0.815,0.483 0.791,0.547 0.757,0.628 0.361,0.349 0.283,0.295 0.523,0.644 0.244,0.337 0.21,0.301 0.371,0.638 0.327,0.666 0.283,0.686 0.132,0.349 0.102,0.284 0.157,0.569 0.107,0.58 0.034,0.595 -0.019,0.306 v 0.112 l 0.024,0.108 -0.039,0.075 0.064,0.204 0.166,0.381 0.214,0.338 0.274,0.289 0.171,0.124 0.146,0.096 0.313,0.172 0.317,0.134 0.332,0.113 0.171,0.043 0.249,0.059 0.498,0.086 0.503,0.043 0.503,-0.017 0.249,-0.032 0.273,-0.043 0.522,-0.128 0.494,-0.178 0.473,-0.23 0.449,-0.274 0.425,-0.327 0.396,-0.376 0.371,-0.429 0.175,-0.236 0.166,-0.247 0.298,-0.509 0.249,-0.537 0.205,-0.563 0.088,-0.29 0.064,-0.247 0.092,-0.493 0.059,-0.504 0.019,-0.51 v -0.252 l -0.004,-0.269 -0.035,-0.531 -0.097,-0.783 -0.21,-1.03 -0.283,-1.009 -0.166,-0.499 -0.113,-0.327 -0.253,-0.644 -0.288,-0.622 -0.318,-0.601 -0.176,-0.295 -0.249,-0.413 -0.507,-0.81 -0.533,-0.794 -0.576,-0.762 -0.302,-0.365 -0.264,-0.295 -0.552,-0.563 -0.864,-0.805 -0.591,-0.51 -1.02,-0.869 -1.006,-0.885 -0.981,-0.885 -0.967,-0.907 -0.093,-0.091 -0.151,-0.215 -0.054,-0.118 -0.029,-0.091 0.005,-0.15 0.078,-0.108 z"
         id="path3956"
         inkscape:connector-curvature="0"
         style="fill:#36f5ff;fill-rule:evenodd" />
    </g>
    <g
       id="g3962"
       inkscape:export-xdpi="75.360001"
       inkscape:export-ydpi="75.360001"
       transform="matrix(0.26749431,0,0,0.26749431,-9.071488,-10.661837)"
       style="opacity:0.83699999;isolation:isolate">
      <path
         d="m 288.034,109.532 0.087,0.006 0.088,0.016 0.176,0.059 0.078,0.048 0.235,0.145 0.464,0.311 0.224,0.166 1.86,1.476 1.841,1.491 0.498,0.408 0.976,0.848 0.474,0.445 0.327,0.327 0.615,0.719 0.293,0.37 0.352,0.473 0.678,0.971 0.318,0.498 0.307,0.51 0.562,1.046 0.488,1.09 0.313,0.842 0.185,0.574 0.083,0.295 0.132,0.493 0.185,0.998 0.103,1.004 0.015,0.762 -0.015,0.509 -0.02,0.258 -0.029,0.338 -0.083,0.676 -0.122,0.67 -0.166,0.655 -0.107,0.322 -0.078,0.214 -0.186,0.413 -0.215,0.398 -0.244,0.375 -0.142,0.182 -0.161,0.199 -0.341,0.381 -0.357,0.354 -0.371,0.327 -0.39,0.301 -0.406,0.279 -0.424,0.252 -0.44,0.225 -0.224,0.102 -0.259,0.108 -0.264,0.107 -0.454,0.112 -0.454,0.113 -0.478,0.048 -0.484,0.027 -0.322,0.005 -0.64,-0.064 -0.629,-0.139 -0.611,-0.215 -0.298,-0.145 -0.507,-0.257 -0.508,-0.247 -0.152,-0.065 -0.302,-0.112 -0.308,-0.081 -0.312,-0.032 -0.156,0.011 -0.064,0.118 -0.054,0.021 -0.049,0.038 -0.151,0.123 -0.312,0.226 -0.323,0.193 -0.331,0.161 -0.342,0.139 -0.347,0.108 -0.361,0.08 -0.371,0.048 -0.186,0.016 -0.083,0.011 -0.068,0.038 -0.147,0.102 -0.297,0.171 -0.474,0.215 -0.317,0.129 -0.235,0.085 -0.464,0.108 -0.473,0.053 -0.474,0.011 -0.239,-0.005 h -0.249 l -0.352,0.043 -0.229,0.059 -0.22,0.086 -0.21,0.107 -0.2,0.134 -0.195,0.166 -0.093,0.097 -0.093,0.08 -0.229,0.118 -0.117,0.049 -0.098,0.037 -0.132,0.081 -0.068,0.08 -0.02,0.059 -0.024,0.081 -0.024,0.086 -0.059,-0.065 -0.078,-0.129 -0.015,-0.139 0.044,-0.134 0.054,-0.07 0.185,-0.225 0.293,-0.333 0.215,-0.193 0.122,-0.081 0.049,-0.032 0.044,-0.037 -0.005,-0.027 -0.005,-0.032 -0.415,0.016 -0.42,0.016 -0.112,0.011 -0.215,0.064 -0.19,0.107 -0.176,0.156 -0.078,0.091 -0.166,0.193 -0.186,0.172 -0.073,0.059 -0.146,0.08 -0.157,0.027 -0.166,-0.027 -0.083,-0.032 -0.039,-0.016 -0.088,0.005 -0.044,0.011 -0.058,0.022 -0.088,0.075 -0.078,0.161 -0.029,0.123 -0.054,-0.048 -0.073,-0.102 -0.03,-0.107 0.015,-0.113 0.029,-0.054 0.054,-0.086 0.146,-0.15 0.074,-0.075 0.063,-0.048 0.064,-0.054 0.2,-0.263 0.2,-0.273 -0.093,0.075 -0.171,0.171 -0.078,0.092 -0.073,0.091 -0.127,0.113 -0.102,0.048 -0.059,0.011 -0.098,0.01 -0.18,0.049 -0.142,0.096 -0.078,0.124 -0.029,0.112 -0.01,0.065 -0.054,-0.054 -0.073,-0.113 -0.025,-0.112 0.02,-0.124 0.024,-0.069 0.03,-0.06 0.073,-0.096 0.132,-0.107 0.107,-0.049 0.059,-0.021 0.044,-0.032 0.254,-0.354 0.244,-0.349 h -0.117 l -0.44,-0.011 -0.879,-0.016 -0.434,-0.032 -0.986,-0.118 -0.982,-0.145 h -0.029 l -0.064,0.032 -0.019,0.027 -0.068,0.118 -0.161,0.204 -0.191,0.155 -0.224,0.118 -0.128,0.038 -0.19,0.054 -0.361,0.139 -0.249,0.15 -0.152,0.124 -0.136,0.15 -0.117,0.182 -0.054,0.102 -0.039,0.07 -0.098,0.081 -0.107,0.01 -0.108,-0.059 -0.048,-0.053 0.068,-0.038 0.063,-0.038 -0.029,-0.064 -0.029,-0.123 0.005,-0.172 0.131,-0.311 0.093,-0.204 -0.088,-0.005 -0.175,0.048 -0.157,0.091 -0.122,0.134 -0.044,0.081 -0.092,0.182 -0.103,0.177 -0.034,0.059 -0.073,0.032 -0.059,-0.01 -0.029,-0.027 -0.098,-0.075 -0.098,-0.075 v -0.145 l 0.035,-0.124 0.146,-0.246 0.161,-0.236 -0.014,-0.022 -0.015,-0.016 -0.176,0.182 -0.176,0.177 -0.107,0.092 -0.112,0.085 -0.078,0.033 -0.054,0.043 -0.064,0.134 -0.058,0.161 -0.034,-0.016 -0.059,-0.049 -0.034,-0.064 -0.01,-0.086 0.01,-0.048 0.044,-0.188 0.068,-0.177 0.049,-0.102 0.127,-0.172 0.229,-0.22 0.176,-0.123 -0.073,-0.032 -0.108,-0.022 -0.073,0.038 -0.068,0.118 -0.039,0.091 -0.054,-0.064 -0.029,-0.145 0.039,-0.156 0.112,-0.123 0.078,-0.043 0.293,-0.145 0.283,-0.161 v -0.027 -0.027 l -0.8,-0.058 -0.806,-0.043 h -0.146 l -0.293,0.043 -0.288,0.08 -0.279,0.113 -0.132,0.069 -0.385,0.215 -0.576,0.311 -0.396,0.177 -0.205,0.07 -0.19,0.054 -0.278,0.037 -0.176,-0.005 -0.176,-0.032 -0.171,-0.065 -0.166,-0.091 -0.161,-0.123 -0.073,-0.076 -0.049,-0.048 -0.049,-0.043 -0.098,0.049 -0.18,0.037 -0.161,-0.032 -0.147,-0.113 -0.063,-0.086 -0.064,-0.096 -0.088,-0.225 -0.014,-0.119 -0.005,-0.155 0.029,-0.327 0.025,-0.156 0.268,-1.4 0.278,-1.395 0.093,-0.44 0.205,-0.869 0.127,-0.429 0.088,-0.269 0.195,-0.52 0.22,-0.504 0.244,-0.489 0.269,-0.477 0.293,-0.456 0.317,-0.435 0.342,-0.423 0.18,-0.21 0.069,-0.08 0.102,-0.177 0.054,-0.199 -0.01,-0.214 -0.039,-0.113 -0.059,-0.177 -0.048,-0.177 -0.034,-0.145 -0.049,-0.284 -0.02,-0.279 0.01,-0.274 0.039,-0.268 0.073,-0.258 0.108,-0.252 0.136,-0.241 0.088,-0.118 0.083,-0.108 0.186,-0.182 0.195,-0.15 0.21,-0.113 0.22,-0.075 0.229,-0.038 0.239,-0.005 0.244,0.032 0.128,0.032 0.122,0.033 0.224,0.096 0.195,0.124 0.171,0.15 0.152,0.177 0.122,0.198 0.097,0.226 0.078,0.247 0.03,0.134 0.049,0.316 0.024,0.322 h 0.117 l 0.264,-0.059 0.288,-0.107 0.278,-0.145 0.122,-0.091 0.366,-0.301 0.357,-0.322 0.268,-0.252 0.288,-0.225 0.235,-0.156 0.493,-0.273 0.508,-0.226 0.527,-0.177 0.269,-0.069 0.307,-0.076 0.62,-0.096 0.625,-0.054 h 0.63 l 0.312,0.011 0.293,0.021 0.581,0.059 0.864,0.14 0.572,0.129 0.464,0.118 0.913,0.263 0.893,0.311 0.869,0.359 0.85,0.424 0.815,0.483 0.791,0.547 0.757,0.628 0.361,0.349 0.283,0.295 0.523,0.644 0.244,0.337 0.21,0.301 0.371,0.638 0.327,0.666 0.283,0.686 0.132,0.349 0.102,0.284 0.157,0.569 0.107,0.58 0.034,0.595 -0.019,0.306 v 0.112 l 0.024,0.108 -0.039,0.075 0.064,0.204 0.166,0.381 0.214,0.338 0.274,0.289 0.171,0.124 0.146,0.096 0.313,0.172 0.317,0.134 0.332,0.113 0.171,0.043 0.249,0.059 0.498,0.086 0.503,0.043 0.503,-0.017 0.249,-0.032 0.273,-0.043 0.522,-0.128 0.494,-0.178 0.473,-0.23 0.449,-0.274 0.425,-0.327 0.396,-0.376 0.371,-0.429 0.175,-0.236 0.166,-0.247 0.298,-0.509 0.249,-0.537 0.205,-0.563 0.088,-0.29 0.064,-0.247 0.092,-0.493 0.059,-0.504 0.019,-0.51 v -0.252 l -0.004,-0.269 -0.035,-0.531 -0.097,-0.783 -0.21,-1.03 -0.283,-1.009 -0.166,-0.499 -0.113,-0.327 -0.253,-0.644 -0.288,-0.622 -0.318,-0.601 -0.176,-0.295 -0.249,-0.413 -0.507,-0.81 -0.533,-0.794 -0.576,-0.762 -0.302,-0.365 -0.264,-0.295 -0.552,-0.563 -0.864,-0.805 -0.591,-0.51 -1.02,-0.869 -1.006,-0.885 -0.981,-0.885 -0.967,-0.907 -0.093,-0.091 -0.151,-0.215 -0.054,-0.118 -0.029,-0.091 0.005,-0.15 0.078,-0.108 z"
         id="path3960"
         inkscape:connector-curvature="0"
         style="fill:#e62ef7;fill-opacity:0.73999999;fill-rule:evenodd" />
    </g>
  </g>
</svg>
